<svg xmlns="http://www.w3.org/2000/svg" viewBox="0 0 3502.907 3953.4162"><defs><style>.cls-1,.cls-4{fill:#999;}.cls-2,.cls-8{fill:#e6e6e6;}.cls-3{fill:none;}.cls-3,.cls-4,.cls-5,.cls-7,.cls-8{stroke:#000;stroke-linecap:round;stroke-linejoin:round;stroke-width:8px;}.cls-5{fill:#f2f2f2;}.cls-6{fill:#fff;}.cls-7{fill:#b3b3b3;}</style></defs><title>nRichDX_illustrations</title><g id="Layer_5" data-name="Layer 5"><polygon class="cls-1" points="2289.873 1109.166 2680.573 2789.166 2560.573 2789.166 2200.573 1109.166 2289.873 1109.166"/><polygon class="cls-1" points="2680.573 2789.166 2640.573 3669.166 920.573 3669.166 880.573 2789.166 1000.573 2789.166 1040.573 3549.166 2520.573 3549.166 2560.573 2789.166 2680.573 2789.166"/><polygon class="cls-2" points="2200.573 1109.166 2560.573 2789.166 2520.573 3549.166 1040.573 3549.166 1000.573 2789.166 1360.573 1109.166 2200.573 1109.166"/><polygon class="cls-1" points="1360.573 1109.166 1000.573 2789.166 880.573 2789.166 1271.273 1109.166 1360.573 1109.166"/><polyline class="cls-3" points="1360.573 1109.166 1271.273 1109.166 880.573 2789.166 920.573 3669.166 2640.573 3669.166 2680.573 2789.166 2289.873 1109.166 2200.573 1109.166"/><polygon class="cls-3" points="1000.573 2789.166 1040.573 3549.166 2520.573 3549.166 2560.573 2789.166 2200.573 1109.166 1360.573 1109.166 1000.573 2789.166"/><line class="cls-3" x1="2560.5727" y1="2789.1655" x2="2680.5727" y2="2789.1655"/><line class="cls-3" x1="880.5727" y1="2789.1655" x2="1000.5727" y2="2789.1655"/><polygon class="cls-4" points="1271.271 1109.164 2289.875 1109.166 2240.573 1069.166 1320.573 1069.166 1271.271 1109.164"/><polygon class="cls-5" points="1040.573 3549.166 1320.573 2549.165 2240.573 2549.166 2520.573 3549.166 1040.573 3549.166"/><polygon class="cls-5" points="1320.573 2549.165 1360.573 1109.166 2200.573 1109.166 2240.573 2549.166 1320.573 2549.165"/><polygon class="cls-6" points="1986.667 1116.187 1353.848 1562.688 1349.845 1689.988 2132.822 1115.618 1986.667 1116.187"/><polygon class="cls-6" points="2159.118 1285.745 1353.848 1853.922 1349.845 1981.221 2201.812 1356.242 2199.607 1285.745 2159.118 1285.745"/><polygon class="cls-4" points="1356.394 1280.385 2204.837 1280.387 2203.641 1220.615 1357.505 1220.615 1356.394 1280.385"/><path class="cls-7" d="M1720.5727,3149.1655l21.8774-1880c0-39.3338,73.68-39.4681,73.68,0l24.4422,1880Z"/><polygon class="cls-4" points="1019.52 3149.166 2541.631 3149.166 2535.314 3269.166 1025.836 3269.166 1019.52 3149.166"/><polygon class="cls-8" points="2560.573 3269.166 2560.573 3749.166 1000.573 3757.166 1000.573 3269.166 2560.573 3269.166"/><rect class="cls-8" x="1040.5727" y="3309.1655" width="1480" height="360" rx="94.0105"/><rect class="cls-4" x="1640.5727" y="3349.1655" width="600" height="120"/><polygon class="cls-4" points="1664.573 3629.166 1712.573 3549.166 1760.573 3629.166 1664.573 3629.166"/><polygon class="cls-4" points="1880.573 3549.166 1832.573 3629.166 1784.573 3549.166 1880.573 3549.166"/><polygon class="cls-4" points="2000.573 3629.166 2048.573 3549.166 2096.573 3629.166 2000.573 3629.166"/><polygon class="cls-4" points="2216.573 3549.166 2168.573 3629.166 2120.573 3549.166 2216.573 3549.166"/><circle class="cls-4" cx="2360.5727" cy="3589.1655" r="40"/><path class="cls-4" d="M1520.576,1551.28l-80,1245.5h680l-80.0006-1245.5Zm-2.966,923.4693a17.5889,17.5889,0,0,1-17.716-18.8309,19.9894,19.9894,0,0,1,19.7007-18.6887,17.5918,17.5918,0,0,1,17.7235,18.6887A19.98,19.98,0,0,1,1517.61,2474.7493Zm15.0805-285.0952c-9.7787,0-17.28-7.5081-16.7575-16.7366.521-9.1922,8.8127-16.6175,18.5219-16.6175s17.2153,7.4253,16.7638,16.6175C1550.7654,2182.146,1542.4693,2189.6541,1532.6905,2189.6541Zm13.4447-254.1694c-9.2484,0-16.3651-6.7163-15.8971-14.9732.4662-8.2262,8.29-14.8724,17.4758-14.8724s16.3066,6.6462,15.9025,14.8724C1563.2108,1928.7684,1555.3836,1935.4847,1546.1352,1935.4847Zm12.0613-228.0168c-8.7726,0-15.5417-6.0435-15.1206-13.4745.42-7.4048,7.825-13.3885,16.5415-13.3885s15.4889,5.9837,15.1251,13.3885C1574.3775,1701.4244,1566.9691,1707.4679,1558.1965,1707.4679Zm89.8888,805.376a72.1609,72.1609,0,0,1-72.5661-75.6142c1.6953-40.79,35.9371-73.3655,76.5064-73.3655a72.2466,72.2466,0,0,1,72.6256,73.3655C1724.181,2478.7055,1689.8982,2512.8439,1648.0853,2512.8439Zm7.6529-289.3541c-39.3976,0-70.0755-30.32-68.5432-67.19,1.5085-36.2944,33.7557-65.3038,72.0474-65.3038s69.0045,29.0094,68.5931,65.3038C1727.4176,2193.1694,1695.1359,2223.49,1655.7382,2223.49Zm6.8171-257.752c-37.2462,0-66.3135-27.1089-64.9424-60.0987,1.3508-32.5029,31.8229-58.5015,68.0791-58.5015s65.3531,25.9986,64.9847,58.5014C1730.3027,1938.6289,1699.8015,1965.7378,1662.5553,1965.7378Zm6.1111-231.0592c-35.3176,0-62.9348-24.3818-61.7008-54.0737,1.2168-29.2759,30.0987-52.7091,64.525-52.7091s62.0686,23.4332,61.7368,52.7091C1732.8908,1710.2968,1703.984,1734.6786,1668.6664,1734.6786Zm248.5891,936.5667c-43.1349,0-78.5145-36.3237-79.0145-80.4334-.4914-43.3581,33.0123-77.968,74.825-77.968s77.1473,34.61,78.9493,77.968C1993.8486,2634.9216,1960.3905,2671.2453,1917.2555,2671.2453Zm-8.13-307.3811c-40.5693,0-73.8216-32.1446-74.2645-71.2156-.4357-38.4439,31.1542-69.1588,70.5518-69.1588s72.6122,30.7148,74.21,69.1588C1981.247,2331.72,1949.6951,2363.8642,1909.1258,2363.8642Zm-7.217-272.868c-38.2916,0-69.658-28.6473-70.053-63.4961-.389-34.32,29.494-61.7623,66.74-61.7623s68.5808,27.4421,70.0072,61.7623C1970.0515,2062.3489,1940.2006,2090.9962,1901.9088,2090.9962Zm-6.45-243.8586c-36.2563,0-65.939-25.6911-66.2935-56.9669-.3494-30.8261,28.0016-55.4921,63.3191-55.4921s64.9733,24.666,66.2545,55.4921C1960.0391,1821.4465,1931.7155,1847.1376,1895.4592,1847.1376Zm154.2214,743.6743c-10.6158,0-19.6563-8.8474-20.19-19.7187-.5317-10.8249,7.5784-19.5664,18.1123-19.5664s19.5688,8.7415,20.1823,19.5664C2068.401,2581.9645,2060.2965,2590.8119,2049.6806,2590.8119Zm-15.7718-298.1633c-9.9937,0-18.48-7.8415-18.9538-17.479-.4715-9.5988,7.19-17.3519,17.1113-17.3519s18.4031,7.7531,18.9471,17.3519C2051.56,2284.8071,2043.9025,2292.6486,2033.9088,2292.6486ZM2019.8833,2027.5c-9.44,0-17.4371-6.9978-17.86-15.6-.4209-8.57,6.84-15.4931,16.215-15.4931s17.3683,6.9234,17.854,15.4931C2036.58,2020.5023,2029.3237,2027.5,2019.8833,2027.5Zm-12.5539-237.3294c-8.9452,0-16.5054-6.2834-16.8848-14.009-.3781-7.6978,6.5206-13.9178,15.4075-13.9178s16.4437,6.22,16.88,13.9178C2023.17,1783.8873,2016.2745,1790.1707,2007.3294,1790.1707Z"/></g></svg>