<svg xmlns="http://www.w3.org/2000/svg" viewBox="0 0 5030.6101 3953.4162"><defs><style>.cls-1{fill:#fff;}.cls-2,.cls-8{fill:#e6e6e6;}.cls-2,.cls-3,.cls-4,.cls-5,.cls-6,.cls-7,.cls-9{stroke:#000;stroke-linejoin:round;}.cls-2,.cls-3,.cls-4,.cls-5,.cls-6,.cls-9{stroke-width:8px;}.cls-3{fill:#4d4d4d;}.cls-3,.cls-4,.cls-5,.cls-6{stroke-linecap:round;}.cls-4{fill:#999;}.cls-5{fill:#ccc;}.cls-6,.cls-7,.cls-9{fill:none;}.cls-7{stroke-width:3px;}</style></defs><title>nRichDX_illustrations</title><g id="Layer_3" data-name="Layer 3"><path class="cls-1" d="M1798.412,2413.8936s19.1522,4.8982,40,7.7712v124.3223l-40-16.0051Z"/><path class="cls-1" d="M1821.412,2410.7224a317.5577,317.5577,0,0,1-40-10.0819V1319.206h40Z"/><polygon class="cls-2" points="3691.519 3129.888 3691.519 3269.888 3791.519 3309.888 3911.519 3309.888 4011.519 3269.888 4011.519 3129.888 3691.519 3129.888"/><path class="cls-2" d="M4031.5194,2029.8884v1100c-67.1751,67.1752-292.8248,67.1752-360,0v-1100Z"/><path class="cls-1" d="M3771.5194,3169.1033a317.5374,317.5374,0,0,1-40-10.0819V2077.587h40Z"/><path class="cls-1" d="M3748.5194,3172.2745s19.1523,4.8983,40,7.7712v124.3224l-40-16.0052Z"/><polygon class="cls-2" points="3038.699 2893.116 3038.699 3033.116 3138.699 3073.116 3258.699 3073.116 3358.699 3033.116 3358.699 2893.116 3038.699 2893.116"/><path class="cls-2" d="M3378.6994,1793.1164v1100c-67.1752,67.1751-292.8249,67.1751-360,0v-1100Z"/><path class="cls-1" d="M3118.6994,2932.3313a317.5577,317.5577,0,0,1-40-10.0819V1840.8149h40Z"/><path class="cls-1" d="M3095.6994,2935.5025s19.1522,4.8982,40,7.7712V3067.596l-40-16.0051Z"/><polygon class="cls-2" points="2377.108 2632.312 2377.108 2772.312 2477.108 2812.312 2597.108 2812.312 2697.108 2772.312 2697.108 2632.312 2377.108 2632.312"/><path class="cls-2" d="M2717.1084,1532.3119v1100c-67.1752,67.1752-292.8249,67.1752-360,0v-1100Z"/><path class="cls-1" d="M2457.1084,2671.5268a317.5374,317.5374,0,0,1-40-10.0819V1580.0105h40Z"/><path class="cls-1" d="M2434.1084,2674.698s19.1522,4.8983,40,7.7712v124.3223l-40-16.0051Z"/><polygon class="cls-2" points="1741.412 2371.507 1741.412 2511.507 1841.412 2551.507 1961.412 2551.507 2061.412 2511.507 2061.412 2371.507 1741.412 2371.507"/><path class="cls-2" d="M2081.412,1271.5075v1100c-67.1752,67.1751-292.8249,67.1751-360,0v-1100Z"/><polygon class="cls-2" points="2850.384 3314.818 2850.384 3454.818 2950.384 3494.818 3070.384 3494.818 3170.384 3454.818 3170.384 3314.818 2850.384 3314.818"/><path class="cls-2" d="M3190.3838,2214.8177v1100c-67.1751,67.1752-292.8248,67.1752-360,0v-1100Z"/><path class="cls-1" d="M2930.3838,3354.0326a317.5374,317.5374,0,0,1-40-10.0819V2262.5163h40Z"/><path class="cls-1" d="M2907.3838,3357.2038s19.1523,4.8983,40,7.7712v124.3223l-40-16.0051Z"/><polygon class="cls-2" points="2197.564 3078.046 2197.564 3218.046 2297.564 3258.046 2417.564 3258.046 2517.564 3218.046 2517.564 3078.046 2197.564 3078.046"/><path class="cls-2" d="M2537.5638,1978.0456v1100c-67.1751,67.1752-292.8249,67.1752-360,0v-1100Z"/><path class="cls-1" d="M2277.5638,3117.2605a317.547,317.547,0,0,1-40-10.0818V2025.7442h40Z"/><path class="cls-1" d="M2254.5638,3120.4317s19.1522,4.8983,40,7.7713v124.3223l-40-16.0052Z"/><polygon class="cls-2" points="1535.973 2817.241 1535.973 2957.241 1635.973 2997.241 1755.973 2997.241 1855.973 2957.241 1855.973 2817.241 1535.973 2817.241"/><path class="cls-2" d="M1875.9728,1717.2412v1100c-67.1751,67.1751-292.8249,67.1751-360,0v-1100Z"/><path class="cls-1" d="M1615.9728,2856.4561a317.5374,317.5374,0,0,1-40-10.0819V1764.94h40Z"/><path class="cls-1" d="M1592.9728,2859.6273s19.1522,4.8982,40,7.7712v124.3223l-40-16.0051Z"/><polygon class="cls-2" points="900.276 2556.437 900.276 2696.437 1000.276 2736.437 1120.276 2736.437 1220.276 2696.437 1220.276 2556.437 900.276 2556.437"/><path class="cls-2" d="M1240.2764,1456.4367v1100c-67.1752,67.1752-292.8249,67.1752-360,0v-1100Z"/><path class="cls-1" d="M980.2764,2595.6516a317.547,317.547,0,0,1-40-10.0818V1504.1353h40Z"/><path class="cls-1" d="M957.2764,2598.8228s19.1522,4.8983,40,7.7713v124.3223l-40-16.0052Z"/><path class="cls-2" d="M2776.8634,2311.5725v437.8011c-7.0987,16.5713-41.9722,40-60,40s-52.9012-23.4287-60-40V2311.5725C2676.8634,2291.5725,2756.8634,2291.5725,2776.8634,2311.5725Z"/><path class="cls-1" d="M2757.36,2740.7236l-40.4968,43.4017,17.3841-48.715-.5779-433.0052a111.8686,111.8686,0,0,1,23.116,4.161Z"/><path class="cls-2" d="M2121.167,2057.6668v437.8011c-7.0988,16.5713-41.9723,40-60,40s-52.9013-23.4287-60-40V2057.6668C2021.167,2037.6668,2101.167,2037.6668,2121.167,2057.6668Z"/><path class="cls-1" d="M2101.6638,2486.8179,2061.167,2530.22l17.384-48.715-.5779-433.0053a111.8622,111.8622,0,0,1,23.116,4.1611Z"/><path class="cls-2" d="M1477.3209,1789.4294v437.8011c-7.0987,16.5713-41.9722,40-60,40s-52.9012-23.4287-60-40V1789.4294C1377.3209,1769.4294,1457.3209,1769.4294,1477.3209,1789.4294Z"/><path class="cls-1" d="M1457.8177,2218.5805l-40.4968,43.4018,17.3841-48.715-.5779-433.0053a111.8722,111.8722,0,0,1,23.116,4.1611Z"/><path class="cls-2" d="M822.2819,1521.192v437.8012c-7.0988,16.5712-41.9723,40-60,40s-52.9013-23.4288-60-40V1521.192C722.2819,1501.192,802.2819,1501.192,822.2819,1521.192Z"/><path class="cls-1" d="M802.7786,1950.3431l-40.4967,43.4018,17.384-48.715-.5779-433.0052a111.8667,111.8667,0,0,1,23.116,4.161Z"/><path class="cls-2" d="M4195.4105,1824.9387V2262.74c-7.0987,16.5713-41.9722,40-60,40s-52.9013-23.4287-60-40V1824.9387C4095.4105,1804.9387,4175.4105,1804.9387,4195.4105,1824.9387Z"/><path class="cls-1" d="M4175.9073,2254.09l-40.4968,43.4018,17.3841-48.715-.5779-433.0053a111.87,111.87,0,0,1,23.1159,4.1611Z"/><path class="cls-3" d="M2998.6075,2711.8h172.7763V3762.06c-86.3881,81.3332-172.7763,0-172.7763,0Z"/><path class="cls-3" d="M4497.2018,2061.875h172.7764v1050.26c-86.3882,81.3332-172.7764,0-172.7764,0Z"/><path class="cls-3" d="M290.3861,1551.86H463.1625v1050.26c-86.3882,81.3331-172.7764,0-172.7764,0Z"/><polygon class="cls-4" points="4711.916 2144.563 4711.916 1927.502 234.047 1415.727 234.047 1632.788 3099.699 2820.33 4711.916 2144.563"/><line class="cls-4" x1="3099.6994" y1="2603.2694" x2="3099.6994" y2="2820.3302"/><polygon class="cls-4" points="4711.916 1927.502 1818.427 825.812 234.047 1415.727 3099.699 2603.269 4711.916 1927.502"/><path class="cls-5" d="M635.2761,1337.9623v-248.77A203.9291,203.9291,0,0,1,768.0482,898.0809l779.3647-290.1824c57.9014-21.5585,119.5379,21.2624,119.5379,83.0471v316.79s-79.9218,66.9162-154.4608,4.6116V821.4062a20.0965,20.0965,0,0,0-27.4856-18.6888L826.0991,1063.2309a41.9676,41.9676,0,0,0-26.5371,39.0279L796.21,1322.413S728.1891,1400.8335,635.2761,1337.9623Z"/><ellipse class="cls-2" cx="4136.6555" cy="1827.1732" rx="91.6504" ry="36.1632"/><path class="cls-2" d="M4196.4105,1699.8733v107.3c-10.1186,26.9678-115.7351,26.4209-120,0v-107.3C4096.4105,1679.8733,4176.4105,1679.8733,4196.4105,1699.8733Z"/><path class="cls-2" d="M4196.4106,1699.8732v107.3c-10.1186,26.9678-115.7351,26.4209-120,0v-107.3C4096.41,1718.44,4176.41,1719.59,4196.4106,1699.8732Z"/><path class="cls-6" d="M4204.4105,1711.7375c-74.0165,44.2963-128,24.233-134,23.5157"/><path class="cls-6" d="M4204.4105,1738.9872c-68,45.5567-122.784,26.9385-134,25.3533"/><path class="cls-6" d="M4204.4105,1767.0745c-63.7358,46.0343-126.0272,26.4094-134,25.3533"/><ellipse class="cls-2" cx="3480.959" cy="1573.2675" rx="91.6504" ry="36.1632"/><path class="cls-2" d="M3540.7141,1445.9676v107.3c-10.1187,26.9677-115.7351,26.4209-120,0v-107.3C3440.7141,1425.9676,3520.7141,1425.9676,3540.7141,1445.9676Z"/><path class="cls-2" d="M3540.7142,1445.9676v107.3c-10.1187,26.9677-115.7351,26.4209-120,0v-107.3C3440.7132,1464.5344,3520.7132,1465.6843,3540.7142,1445.9676Z"/><path class="cls-6" d="M3548.7141,1457.8318c-74.0165,44.2963-128,24.233-134,23.5157"/><path class="cls-6" d="M3548.7141,1485.0816c-68,45.5566-122.7841,26.9385-134,25.3532"/><path class="cls-6" d="M3548.7141,1513.1689c-63.7359,46.0342-126.0273,26.4094-134,25.3532"/><ellipse class="cls-2" cx="2835.113" cy="1326.0301" rx="91.6504" ry="36.1632"/><path class="cls-2" d="M2894.868,1198.73v107.3c-10.1187,26.9677-115.7351,26.4209-120,0v-107.3C2794.868,1178.73,2874.868,1178.73,2894.868,1198.73Z"/><path class="cls-2" d="M2894.8681,1198.73v107.3c-10.1187,26.9677-115.7351,26.4209-120,0v-107.3C2794.8671,1217.2971,2874.8671,1218.447,2894.8681,1198.73Z"/><path class="cls-6" d="M2902.868,1210.5944c-74.0165,44.2964-128,24.2331-134,23.5158"/><path class="cls-6" d="M2902.868,1237.8442c-68,45.5566-122.784,26.9385-134,25.3533"/><path class="cls-6" d="M2902.868,1265.9315c-63.7358,46.0342-126.0272,26.4094-134,25.3532"/><ellipse class="cls-2" cx="2188.0739" cy="1058.7928" rx="91.6504" ry="36.1632"/><path class="cls-2" d="M2247.8289,931.4929v107.3c-10.1186,26.9678-115.7351,26.4209-120,0v-107.3C2147.8289,911.4929,2227.8289,911.4929,2247.8289,931.4929Z"/><path class="cls-2" d="M2247.829,931.4928v107.3c-10.1186,26.9678-115.7351,26.4209-120,0v-107.3C2147.8281,950.06,2227.8281,951.21,2247.829,931.4928Z"/><path class="cls-6" d="M2255.8289,943.3571c-74.0165,44.2963-128,24.233-134,23.5157"/><path class="cls-6" d="M2255.8289,970.6068c-68,45.5566-122.784,26.9385-134,25.3533"/><path class="cls-6" d="M2255.8289,998.6941c-63.7358,46.0342-126.0272,26.4094-134,25.3533"/><polygon class="cls-2" points="4092.315 2029.888 3944.133 1969.888 3758.906 1969.888 3610.724 2029.888 3610.724 1829.888 3758.906 1769.888 3944.133 1769.888 4092.315 1829.888 4092.315 2029.888"/><path class="cls-1" d="M3671.5194,1822.1587v-52.27l120-320h120l120,320v52.27C3967.88,1885.7983,3735.159,1885.7983,3671.5194,1822.1587Z"/><path class="cls-7" d="M3671.5194,1822.1587v-52.27l120-320h120l120,320v52.27C3967.88,1885.7983,3735.159,1885.7983,3671.5194,1822.1587Z"/><path class="cls-8" d="M3671.5194,1822.1587v-52.27l120-320h120l120,320v52.27C3967.88,1885.7983,3735.159,1885.7983,3671.5194,1822.1587Z"/><path class="cls-9" d="M3671.5194,1822.1587v-52.27l120-320h120l120,320v52.27C3967.88,1885.7983,3735.159,1885.7983,3671.5194,1822.1587Z"/><path class="cls-2" d="M3951.5194,1449.8884c-20-20-180-20-200,0v-80c40-40,160-40,200,0Z"/><path class="cls-1" d="M3717.6013,1769.8884l89.9728-294.2187,9.8944,1.7316-65.7056,310.6211v67.3142c-21.52-5.0967-34.1616-10.2878-34.1616-10.2878Z"/><polygon class="cls-2" points="3610.724 1829.888 3758.906 1889.888 3944.133 1889.888 4092.315 1829.888 4092.315 2029.888 3944.133 2089.888 3758.906 2089.888 3610.724 2029.888 3610.724 1829.888"/><polygon class="cls-1" points="3664.763 1856.114 3704.763 1872.299 3705.763 2064.084 3665.76 2047.87 3664.763 1856.114"/><path class="cls-2" d="M3801.162,1345.52c96.6713-5.6315,141.1945,43.6294,141.1945,43.6294"/><path class="cls-2" d="M3765.1847,1380.9717c88.12-24.2089,140.3427,21.2213,140.3427,21.2213"/><path class="cls-2" d="M3751.5194,1369.8884c40,40,160,40,200,0v80c-40,40-160,40-200,0Z"/><path class="cls-1" d="M3783.7344,1393.3323a169.9305,169.9305,0,0,0,27.179,7.0063v71.8654c-11.8667-1.7995-26.215-7.07-26.215-7.07Z"/><polygon class="cls-2" points="3439.495 1793.116 3291.313 1733.116 3106.086 1733.116 2957.904 1793.116 2957.904 1593.116 3106.086 1533.116 3291.313 1533.116 3439.495 1593.116 3439.495 1793.116"/><path class="cls-1" d="M3018.6994,1585.3867v-52.27l120-320h120l120,320v52.27C3315.06,1649.0263,3082.339,1649.0263,3018.6994,1585.3867Z"/><path class="cls-7" d="M3018.6994,1585.3867v-52.27l120-320h120l120,320v52.27C3315.06,1649.0263,3082.339,1649.0263,3018.6994,1585.3867Z"/><path class="cls-8" d="M3018.6994,1585.3867v-52.27l120-320h120l120,320v52.27C3315.06,1649.0263,3082.339,1649.0263,3018.6994,1585.3867Z"/><path class="cls-9" d="M3018.6994,1585.3867v-52.27l120-320h120l120,320v52.27C3315.06,1649.0263,3082.339,1649.0263,3018.6994,1585.3867Z"/><path class="cls-2" d="M3298.6994,1213.1164c-20-20-180-20-200,0v-80c40-40,160-40,200,0Z"/><path class="cls-1" d="M3064.7812,1533.1164l89.9729-294.2188,9.8944,1.7316L3098.9429,1551.25v67.3142c-21.52-5.0967-34.1617-10.2878-34.1617-10.2878Z"/><polygon class="cls-2" points="2957.904 1593.116 3106.086 1653.116 3291.313 1653.116 3439.495 1593.116 3439.495 1793.116 3291.313 1853.116 3106.086 1853.116 2957.904 1793.116 2957.904 1593.116"/><polygon class="cls-1" points="3011.943 1619.342 3051.943 1635.526 3052.943 1827.312 3012.94 1811.098 3011.943 1619.342"/><path class="cls-2" d="M3148.342,1108.7478c96.6713-5.6314,141.1945,43.63,141.1945,43.63"/><path class="cls-2" d="M3112.3647,1144.2c88.12-24.209,140.3426,21.2212,140.3426,21.2212"/><path class="cls-2" d="M3098.6994,1133.1164c40,40,160,40,200,0v80c-40,40-160,40-200,0Z"/><path class="cls-1" d="M3130.9144,1156.56a169.9153,169.9153,0,0,0,27.1789,7.0063v71.8655c-11.8666-1.8-26.2149-7.07-26.2149-7.07Z"/><polygon class="cls-2" points="2777.904 1532.312 2629.722 1472.312 2444.495 1472.312 2296.313 1532.312 2296.313 1332.312 2444.495 1272.312 2629.722 1272.312 2777.904 1332.312 2777.904 1532.312"/><path class="cls-1" d="M2357.1084,1324.5822v-52.27l120-320h120l120,320v52.27C2653.4688,1388.2218,2420.748,1388.2218,2357.1084,1324.5822Z"/><path class="cls-7" d="M2357.1084,1324.5822v-52.27l120-320h120l120,320v52.27C2653.4688,1388.2218,2420.748,1388.2218,2357.1084,1324.5822Z"/><path class="cls-8" d="M2357.1084,1324.5822v-52.27l120-320h120l120,320v52.27C2653.4688,1388.2218,2420.748,1388.2218,2357.1084,1324.5822Z"/><path class="cls-9" d="M2357.1084,1324.5822v-52.27l120-320h120l120,320v52.27C2653.4688,1388.2218,2420.748,1388.2218,2357.1084,1324.5822Z"/><path class="cls-2" d="M2637.1084,952.3119c-20-20-180-20-200,0v-80c40-40,160-40,200,0Z"/><path class="cls-1" d="M2403.19,1272.3119l89.9729-294.2187,9.8944,1.7315-65.7056,310.6212V1357.76c-21.52-5.0968-34.1617-10.2878-34.1617-10.2878Z"/><polygon class="cls-2" points="2296.313 1332.312 2444.495 1392.312 2629.722 1392.312 2777.904 1332.312 2777.904 1532.312 2629.722 1592.312 2444.495 1592.312 2296.313 1532.312 2296.313 1332.312"/><polygon class="cls-1" points="2350.352 1358.538 2390.352 1374.722 2391.352 1566.507 2351.349 1550.293 2350.352 1358.538"/><path class="cls-2" d="M2486.751,847.9434c96.6713-5.6315,141.1945,43.6294,141.1945,43.6294"/><path class="cls-2" d="M2450.7737,883.3952c88.12-24.2089,140.3426,21.2213,140.3426,21.2213"/><path class="cls-2" d="M2437.1084,872.3119c40,40,160,40,200,0v80c-40,40-160,40-200,0Z"/><path class="cls-1" d="M2469.3234,895.7558a169.9211,169.9211,0,0,0,27.1789,7.0062v71.8655c-11.8666-1.8-26.2149-7.07-26.2149-7.07Z"/><polygon class="cls-2" points="2142.207 1271.507 1994.026 1211.507 1808.798 1211.507 1660.616 1271.507 1660.616 1071.507 1808.798 1011.507 1994.026 1011.507 2142.207 1071.507 2142.207 1271.507"/><path class="cls-1" d="M1721.412,1063.7778v-52.27l120-320h120l120,320v52.27C2017.7723,1127.4174,1785.0516,1127.4174,1721.412,1063.7778Z"/><path class="cls-7" d="M1721.412,1063.7778v-52.27l120-320h120l120,320v52.27C2017.7723,1127.4174,1785.0516,1127.4174,1721.412,1063.7778Z"/><path class="cls-8" d="M1721.412,1063.7778v-52.27l120-320h120l120,320v52.27C2017.7723,1127.4174,1785.0516,1127.4174,1721.412,1063.7778Z"/><path class="cls-9" d="M1721.412,1063.7778v-52.27l120-320h120l120,320v52.27C2017.7723,1127.4174,1785.0516,1127.4174,1721.412,1063.7778Z"/><path class="cls-2" d="M2001.412,691.5075c-20-20-180-20-200,0v-80c40-40,160-40,200,0Z"/><path class="cls-1" d="M1767.4938,1011.5075l89.9728-294.2188,9.8944,1.7316-65.7055,310.6211v67.3142c-21.52-5.0967-34.1617-10.2878-34.1617-10.2878Z"/><polygon class="cls-2" points="1660.616 1071.507 1808.798 1131.507 1994.026 1131.507 2142.207 1071.507 2142.207 1271.507 1994.026 1331.507 1808.798 1331.507 1660.616 1271.507 1660.616 1071.507"/><polygon class="cls-1" points="1714.655 1097.733 1754.655 1113.918 1755.655 1305.703 1715.652 1289.489 1714.655 1097.733"/><path class="cls-2" d="M1851.0545,587.1389c96.6714-5.6314,141.1945,43.63,141.1945,43.63"/><path class="cls-2" d="M1815.0773,622.5908c88.12-24.209,140.3426,21.2212,140.3426,21.2212"/><path class="cls-2" d="M1801.412,611.5075c40,40,160,40,200,0v80c-40,40-160,40-200,0Z"/><path class="cls-1" d="M1833.627,634.9513a169.9153,169.9153,0,0,0,27.1789,7.0063v71.8655c-11.8666-1.7995-26.215-7.07-26.215-7.07Z"/><polygon class="cls-2" points="3251.179 2214.818 3102.997 2154.818 2917.77 2154.818 2769.588 2214.818 2769.588 2014.818 2917.77 1954.818 3102.997 1954.818 3251.179 2014.818 3251.179 2214.818"/><path class="cls-1" d="M2830.3838,2007.088v-52.27l120-320h120l120,320v52.27C3126.7442,2070.7276,2894.0234,2070.7276,2830.3838,2007.088Z"/><path class="cls-7" d="M2830.3838,2007.088v-52.27l120-320h120l120,320v52.27C3126.7442,2070.7276,2894.0234,2070.7276,2830.3838,2007.088Z"/><path class="cls-8" d="M2830.3838,2007.088v-52.27l120-320h120l120,320v52.27C3126.7442,2070.7276,2894.0234,2070.7276,2830.3838,2007.088Z"/><path class="cls-9" d="M2830.3838,2007.088v-52.27l120-320h120l120,320v52.27C3126.7442,2070.7276,2894.0234,2070.7276,2830.3838,2007.088Z"/><path class="cls-2" d="M3110.3838,1634.8177c-20-20-180-20-200,0v-80c40-40,160-40,200,0Z"/><path class="cls-1" d="M2876.4657,1954.8177l89.9728-294.2187,9.8944,1.7315-65.7056,310.6212v67.3142c-21.52-5.0968-34.1616-10.2878-34.1616-10.2878Z"/><polygon class="cls-2" points="2769.588 2014.818 2917.77 2074.818 3102.997 2074.818 3251.179 2014.818 3251.179 2214.818 3102.997 2274.818 2917.77 2274.818 2769.588 2214.818 2769.588 2014.818"/><polygon class="cls-1" points="2823.627 2041.043 2863.627 2057.228 2864.627 2249.013 2824.624 2232.799 2823.627 2041.043"/><path class="cls-2" d="M2960.0264,1530.4492c96.6713-5.6315,141.1945,43.6294,141.1945,43.6294"/><path class="cls-2" d="M2924.0491,1565.901c88.12-24.2089,140.3427,21.2213,140.3427,21.2213"/><path class="cls-2" d="M2910.3838,1554.8177c40,40,160,40,200,0v80c-40,40-160,40-200,0Z"/><path class="cls-1" d="M2942.5989,1578.2616a169.9211,169.9211,0,0,0,27.1789,7.0062v71.8655c-11.8666-1.7995-26.215-7.07-26.215-7.07Z"/><polygon class="cls-2" points="2598.359 1978.046 2450.177 1918.046 2264.95 1918.046 2116.768 1978.046 2116.768 1778.046 2264.95 1718.046 2450.177 1718.046 2598.359 1778.046 2598.359 1978.046"/><path class="cls-1" d="M2177.5638,1770.3159v-52.27l120-320h120l120,320v52.27C2473.9242,1833.9556,2241.2034,1833.9556,2177.5638,1770.3159Z"/><path class="cls-7" d="M2177.5638,1770.3159v-52.27l120-320h120l120,320v52.27C2473.9242,1833.9556,2241.2034,1833.9556,2177.5638,1770.3159Z"/><path class="cls-8" d="M2177.5638,1770.3159v-52.27l120-320h120l120,320v52.27C2473.9242,1833.9556,2241.2034,1833.9556,2177.5638,1770.3159Z"/><path class="cls-9" d="M2177.5638,1770.3159v-52.27l120-320h120l120,320v52.27C2473.9242,1833.9556,2241.2034,1833.9556,2177.5638,1770.3159Z"/><path class="cls-2" d="M2457.5638,1398.0456c-20-20-180-20-200,0v-80c40-40,160-40,200,0Z"/><path class="cls-1" d="M2223.6457,1718.0456l89.9728-294.2187,9.8944,1.7316L2257.8073,1736.18v67.3142c-21.52-5.0967-34.1616-10.2878-34.1616-10.2878Z"/><polygon class="cls-2" points="2116.768 1778.046 2264.95 1838.046 2450.177 1838.046 2598.359 1778.046 2598.359 1978.046 2450.177 2038.046 2264.95 2038.046 2116.768 1978.046 2116.768 1778.046"/><polygon class="cls-1" points="2170.807 1804.271 2210.807 1820.456 2211.807 2012.241 2171.804 1996.027 2170.807 1804.271"/><path class="cls-2" d="M2307.2064,1293.6771c96.6713-5.6315,141.1945,43.6295,141.1945,43.6295"/><path class="cls-2" d="M2271.2291,1329.129c88.12-24.209,140.3427,21.2212,140.3427,21.2212"/><path class="cls-2" d="M2257.5638,1318.0456c40,40,160,40,200,0v80c-40,40-160,40-200,0Z"/><path class="cls-1" d="M2289.7788,1341.49a169.9153,169.9153,0,0,0,27.1789,7.0063v71.8654c-11.8666-1.7994-26.2149-7.07-26.2149-7.07Z"/><polygon class="cls-2" points="1936.768 1717.241 1788.586 1657.241 1603.359 1657.241 1455.177 1717.241 1455.177 1517.241 1603.359 1457.241 1788.586 1457.241 1936.768 1517.241 1936.768 1717.241"/><path class="cls-1" d="M1515.9728,1509.5115v-52.27l120-320h120l120,320v52.27C1812.3332,1573.1511,1579.6124,1573.1511,1515.9728,1509.5115Z"/><path class="cls-7" d="M1515.9728,1509.5115v-52.27l120-320h120l120,320v52.27C1812.3332,1573.1511,1579.6124,1573.1511,1515.9728,1509.5115Z"/><path class="cls-8" d="M1515.9728,1509.5115v-52.27l120-320h120l120,320v52.27C1812.3332,1573.1511,1579.6124,1573.1511,1515.9728,1509.5115Z"/><path class="cls-9" d="M1515.9728,1509.5115v-52.27l120-320h120l120,320v52.27C1812.3332,1573.1511,1579.6124,1573.1511,1515.9728,1509.5115Z"/><path class="cls-2" d="M1795.9728,1137.2412c-20-20-180-20-200,0v-80c40-40,160-40,200,0Z"/><path class="cls-1" d="M1562.0547,1457.2412l89.9728-294.2187,9.8944,1.7315-65.7056,310.6212v67.3141c-21.52-5.0967-34.1616-10.2877-34.1616-10.2877Z"/><polygon class="cls-2" points="1455.177 1517.241 1603.359 1577.241 1788.586 1577.241 1936.768 1517.241 1936.768 1717.241 1788.586 1777.241 1603.359 1777.241 1455.177 1717.241 1455.177 1517.241"/><polygon class="cls-1" points="1509.216 1543.467 1549.216 1559.651 1550.216 1751.437 1510.213 1735.223 1509.216 1543.467"/><path class="cls-2" d="M1645.6154,1032.8727c96.6713-5.6315,141.1945,43.6294,141.1945,43.6294"/><path class="cls-2" d="M1609.6381,1068.3245c88.12-24.2089,140.3427,21.2213,140.3427,21.2213"/><path class="cls-2" d="M1595.9728,1057.2412c40,40,160,40,200,0v80c-40,40-160,40-200,0Z"/><path class="cls-1" d="M1628.1878,1080.685a169.9153,169.9153,0,0,0,27.1789,7.0063v71.8655c-11.8666-1.8-26.2149-7.07-26.2149-7.07Z"/><polygon class="cls-2" points="1301.072 1456.437 1152.89 1396.437 967.663 1396.437 819.481 1456.437 819.481 1256.437 967.663 1196.437 1152.89 1196.437 1301.072 1256.437 1301.072 1456.437"/><path class="cls-1" d="M880.2764,1248.707v-52.27l120-320h120l120,320v52.27C1176.6368,1312.3467,943.916,1312.3467,880.2764,1248.707Z"/><path class="cls-7" d="M880.2764,1248.707v-52.27l120-320h120l120,320v52.27C1176.6368,1312.3467,943.916,1312.3467,880.2764,1248.707Z"/><path class="cls-8" d="M880.2764,1248.707v-52.27l120-320h120l120,320v52.27C1176.6368,1312.3467,943.916,1312.3467,880.2764,1248.707Z"/><path class="cls-9" d="M880.2764,1248.707v-52.27l120-320h120l120,320v52.27C1176.6368,1312.3467,943.916,1312.3467,880.2764,1248.707Z"/><path class="cls-2" d="M1160.2764,876.4367c-20-20-180-20-200,0v-80c40-40,160-40,200,0Z"/><path class="cls-1" d="M926.3582,1196.4367l89.9729-294.2187,9.8944,1.7316L960.52,1214.5707v67.3142c-21.52-5.0967-34.1617-10.2878-34.1617-10.2878Z"/><polygon class="cls-2" points="819.481 1256.437 967.663 1316.437 1152.89 1316.437 1301.072 1256.437 1301.072 1456.437 1152.89 1516.437 967.663 1516.437 819.481 1456.437 819.481 1256.437"/><polygon class="cls-1" points="873.52 1282.662 913.52 1298.847 914.52 1490.632 874.517 1474.418 873.52 1282.662"/><path class="cls-2" d="M1009.9189,772.0682c96.6714-5.6315,141.1946,43.63,141.1946,43.63"/><path class="cls-2" d="M973.9417,807.52c88.12-24.209,140.3426,21.2212,140.3426,21.2212"/><path class="cls-2" d="M960.2764,796.4367c40,40,160,40,200,0v80c-40,40-160,40-200,0Z"/><path class="cls-1" d="M992.4914,819.8806a169.9153,169.9153,0,0,0,27.1789,7.0063v71.8654c-11.8666-1.7994-26.215-7.07-26.215-7.07Z"/><ellipse class="cls-2" cx="2717.1084" cy="2312.8069" rx="91.6504" ry="36.1632"/><path class="cls-2" d="M2776.8634,2185.5071v107.3c-10.1186,26.9678-115.7351,26.4209-120,0v-107.3C2676.8634,2165.5071,2756.8634,2165.5071,2776.8634,2185.5071Z"/><path class="cls-2" d="M2776.8635,2185.507v107.3c-10.1186,26.9678-115.7351,26.4209-120,0v-107.3C2676.8625,2204.0739,2756.8625,2205.2238,2776.8635,2185.507Z"/><path class="cls-6" d="M2784.8634,2197.3712c-74.0165,44.2964-128,24.2331-134,23.5158"/><path class="cls-6" d="M2784.8634,2224.621c-68,45.5566-122.784,26.9385-134,25.3533"/><path class="cls-6" d="M2784.8634,2252.7083c-63.7358,46.0342-126.0272,26.4094-134,25.3533"/><ellipse class="cls-2" cx="2061.412" cy="2058.9013" rx="91.6504" ry="36.1632"/><path class="cls-2" d="M2121.167,1931.6014v107.3c-10.1187,26.9678-115.7351,26.4209-120,0v-107.3C2021.167,1911.6014,2101.167,1911.6014,2121.167,1931.6014Z"/><path class="cls-2" d="M2121.1671,1931.6013v107.3c-10.1187,26.9678-115.7351,26.4209-120,0v-107.3C2021.1661,1950.1682,2101.1661,1951.3181,2121.1671,1931.6013Z"/><path class="cls-6" d="M2129.167,1943.4656c-74.0165,44.2963-128,24.233-134,23.5157"/><path class="cls-6" d="M2129.167,1970.7153c-68,45.5567-122.784,26.9385-134,25.3533"/><path class="cls-6" d="M2129.167,1998.8026c-63.7358,46.0343-126.0272,26.4094-134,25.3533"/><ellipse class="cls-2" cx="1417.5659" cy="1790.6639" rx="91.6504" ry="36.1632"/><path class="cls-2" d="M1477.3209,1663.364v107.3c-10.1186,26.9678-115.7351,26.4209-120,0v-107.3C1377.3209,1643.364,1457.3209,1643.364,1477.3209,1663.364Z"/><path class="cls-2" d="M1477.321,1663.3639v107.3c-10.1186,26.9678-115.7351,26.4209-120,0v-107.3C1377.32,1681.9308,1457.32,1683.0807,1477.321,1663.3639Z"/><path class="cls-6" d="M1485.3209,1675.2282c-74.0165,44.2963-128,24.233-134,23.5157"/><path class="cls-6" d="M1485.3209,1702.4779c-68,45.5567-122.784,26.9385-134,25.3533"/><path class="cls-6" d="M1485.3209,1730.5652c-63.7358,46.0343-126.0272,26.4094-134,25.3533"/><ellipse class="cls-2" cx="762.5268" cy="1522.4265" rx="91.6504" ry="36.1632"/><path class="cls-2" d="M822.2819,1395.1266v107.3c-10.1187,26.9678-115.7351,26.4209-120,0v-107.3C722.2819,1375.1266,802.2819,1375.1266,822.2819,1395.1266Z"/><path class="cls-2" d="M822.282,1395.1265v107.3c-10.1187,26.9678-115.7351,26.4209-120,0v-107.3C722.281,1413.6934,802.281,1414.8433,822.282,1395.1265Z"/><path class="cls-6" d="M830.2819,1406.9908c-74.0166,44.2963-128,24.233-134,23.5157"/><path class="cls-6" d="M830.2819,1434.2405c-68,45.5567-122.7841,26.9386-134,25.3533"/><path class="cls-6" d="M830.2819,1462.3278c-63.7359,46.0343-126.0273,26.4094-134,25.3533"/><path class="cls-5" d="M3295.076,2382.44V2119.122A203.9292,203.9292,0,0,1,3427.8481,1928.01l779.3647-290.1823c57.9014-21.5585,119.5379,21.2624,119.5379,83.0471v316.79s-79.9218,66.9162-154.4608,4.6116V1851.3355a20.0966,20.0966,0,0,0-27.4856-18.6889L3485.899,2093.16a41.9676,41.9676,0,0,0-26.5371,39.0279L3456.01,2380.89S3378.6994,2461.5075,3295.076,2382.44Z"/></g></svg>