<svg id="Layer_1" data-name="Layer 1" xmlns="http://www.w3.org/2000/svg" viewBox="0 0 760 760"><defs><style>.cls-1{fill:#f6f6f6;}.cls-2{fill:#4181be;}.cls-3{fill:#90c1e8;}.cls-4{fill:#92c2e6;}.cls-5{fill:#a7d3ff;}.cls-6,.cls-9{fill:none;stroke-miterlimit:10;}.cls-6{stroke:#fff;}.cls-7{fill:#fff;}.cls-8{fill:#cad8e6;}.cls-9{stroke:#4181be;}</style></defs><title>ccf_logos</title><rect class="cls-1" y="0.0417" width="760" height="393.1057"/><path class="cls-2" d="M147.3289,221.3735a18.5751,18.5751,0,0,1-4.9649,1.3,29.4842,29.4842,0,0,1-4.9028.35,23.3673,23.3673,0,0,1-14.2723-5.0886,22.2786,22.2786,0,0,1-8.4665-13.4236,23.6324,23.6324,0,0,1,10.7321-25.4231.7167.7167,0,0,1,.4944-.1783c.3872.1319.5966.4845.867.7552a.6065.6065,0,0,1,.1866.7088c-.1329.3066-.3824.3009-.6458.2948a5.5477,5.5477,0,0,0-1.7318.289c-.1742.0525-.3834.104-.3863.3208-.0038.284.2466.2813.445.3189a1.689,1.689,0,0,1,1.2769.6054,1.6186,1.6186,0,0,0,1.3221.829.6874.6874,0,0,1,.6365.5981c.1026.4873.3894.4287.7186.34l.0086.0089c.0281.5257-.1058.915-.727.79a1.0366,1.0366,0,0,0-1.2943.8082,1.5915,1.5915,0,0,1-1.31,1.0781,3.7781,3.7781,0,0,0-.6647.19c-.2164.0843-.4518.2013-.4338.4853a.5817.5817,0,0,0,.4231.5157,2.666,2.666,0,0,0,1.504.17,6.3232,6.3232,0,0,1,2.2219-.0614c.8949.0921,1.6891,1.2917,1.1877,1.76-.8529.7965-.7193,1.7709-.79,2.7594-.0724,1.0073.5229,1.9126.4564,2.8356-.0976,1.3567-.02,2.8009-.8293,4.0276a1.3055,1.3055,0,0,0-.1121,1.0555,4.9185,4.9185,0,0,0,.7808,1.6131,2.9954,2.9954,0,0,1,.6453,1.7432c-.1058,1.8553,1.0717,2.7853,2.382,3.6419.1513.0989.3257.2176.4981.086.784-.5984.6182.1209.67.5088.06.4524-.1535.9833.31,1.3187a6.72,6.72,0,0,0,2.9944,1.361,3.6459,3.6459,0,0,1,1.4406.4861,31.7744,31.7744,0,0,0,5.2129,2.4825.8157.8157,0,0,1,.5961,1.0706,8.7875,8.7875,0,0,1-.8217,2.7723c-.3054.5511-.2529,1.0654.4257,1.2287.782.1881,1.4829.6,2.2434.8035A1.9748,1.9748,0,0,1,147.3289,221.3735Z"/><path class="cls-2" d="M155.7834,182.6976a13.9071,13.9071,0,0,1,2.76,3.6363c.0331.2849.0642.57.1.8547a4.6509,4.6509,0,0,1-.3422,2.912,1.248,1.248,0,0,0,.2537,1.6808,2.6985,2.6985,0,0,1,.7886,1.6505c.1552,1.2415.3763,2.4754.6052,3.7056a4.3009,4.3009,0,0,0,2.1082,3.0994,24.69,24.69,0,0,1-2.15,9.6784,2.6884,2.6884,0,0,0-2.4472.8509,2.0733,2.0733,0,0,1-1.5294.5859c-1.09.0455-2.1068-.4926-3.1986-.3449a2.11,2.11,0,0,1-1.3381-.256,3.3791,3.3791,0,0,0-2.6836-.2042,16.4841,16.4841,0,0,0-3.4658,1.8559,1.7583,1.7583,0,0,1-2.766-1.147,1.8573,1.8573,0,0,0-1.1177-1.4033.8276.8276,0,0,1-.5366-.7867c-.0618-.7675-.5345-1.0137-1.2319-.6436-.3174.1684-.6012.4026-.9136.5828-.1957.113-.3878.28-.6382.229a2.7426,2.7426,0,0,1-1.5011-2.5105,7.03,7.03,0,0,1,.6359-1.1662.8747.8747,0,0,1,1.2292-.453,2.3418,2.3418,0,0,0,1.5047.1809c.9664-.2252,1.8346-.2528,2.3355.8706a.6393.6393,0,0,0,.7816.3622c.3509-.1142.259-.4679.261-.7478a1.4736,1.4736,0,0,0-.0526-.3888,3.0346,3.0346,0,0,1,.8469-3.1617,1.7431,1.7431,0,0,0,.5892-1.075c.186-1.7272.754-3.1991,2.4528-3.96.5149-.2306.5822-.6149.1125-1.0361-.2478-.2223-.5716-.3548-.7381-.6794a.7338.7338,0,0,1-.0085-.8805c.2771-.312.5277-.0186.7285.1447a2.49,2.49,0,0,0,1.893.4751c.1818-.0154.39-.04.4308-.253.047-.2438-.1946-.3087-.3437-.3506-.8854-.2491-1.3184-.9951-1.8841-1.6406a4.7568,4.7568,0,0,0-2.9055-1.8568,11.36,11.36,0,0,0-1.8469-.0181c-.9821.0388-1.1533.2407-1.1375,1.2341.0051.316.0223.6328.007.9478-.0314.65-.2481.7743-.7466.3939a1.5807,1.5807,0,0,0-.8939-.3805c-.6917-.0477-.8555-.6751-1.0916-1.1895-.2228-.4853.1519-.71.4472-.96a1.71,1.71,0,0,0,.7575-1.547c-.0312-.28.0788-.6418-.222-.7875s-.525.1385-.7126.34c-.5141.552-.9335.4015-1.4509-.0506a3.6749,3.6749,0,0,1-1.3494-2.6254,1.73,1.73,0,0,0-1.0259-1.4811c-.4289-.184-.7745.15-1.0767.4467-.207.2035-.4139.4165-.3232.7493.1041.3818.4226.33.6975.3214a.82.82,0,0,1,.824.459.6379.6379,0,0,1-.0913.7966c-.2787.3-.4534-.0072-.6323-.1683a5.6978,5.6978,0,0,0-1.2244-.7957c-.772-.4014-1.6121-.8086-1.8676-1.76-.3252-1.211-.2886-1.2167-1.513-1.217a3.7749,3.7749,0,0,0-1.29.1635l-.0085-.0088c.0011-.2842.2322-.3761.4016-.5327a4.2463,4.2463,0,0,0,1.4189-1.8253,2.8379,2.8379,0,0,1,1.5514-1.7478,13.0062,13.0062,0,0,0,2.7482-1.5578,2.2538,2.2538,0,0,1,2.8226-.2541,9.79,9.79,0,0,0,3.3841.5236,1.0167,1.0167,0,0,0,.7007-.2859c1.3619-1.0444,2.5122-.83,3.5378.5479,1.471,1.9765,3.2177,3.3755,5.8764,2.6607.62-.1667,1.2561.6229,1.5712,1.7419.2021.7179-.2824.7611-.717.9226-.2452.0911-.6206.1407-.5547.5285.0476.2807.3171.3914.5987.3961a1.31,1.31,0,0,1,1.042.578c.1588.2035.34.4838.5918.4708a2.5278,2.5278,0,0,1,1.8745.7308.6161.6161,0,0,0,.8958-.1444c.262-.2933.154-.56-.0461-.8467a1.6708,1.6708,0,0,1-.43-.9041C155.8792,184.2132,155.8256,183.4556,155.7834,182.6976Zm-9.1169,2.8928c.0132-1.6215.0087-1.6113-1.3444-2.2372a3.7186,3.7186,0,0,1-.9741-.6235,2.4113,2.4113,0,0,0-1.768-.6317,12.5327,12.5327,0,0,0-2.9476.47,2.416,2.416,0,0,0-1.3744,1.2022c-.3758.6122-.2307.9247.4509,1.1892a6.196,6.196,0,0,0,2.7147.4094,2.504,2.504,0,0,1,2.6149,1.516,7.3019,7.3019,0,0,0,3.0754,2.89c.177.0987.4205.2664.6453.0739a.66.66,0,0,0,.1332-.6654,2.9,2.9,0,0,0-.5316-1.2959A3.1384,3.1384,0,0,1,146.6665,185.59Zm-6.6185.74a3.4675,3.4675,0,0,0-.7089.0489c-.3441.1135-.8173.0883-.8317.646-.0152.5859.502.4893.7859.527a2.3942,2.3942,0,0,1,1.7567.83c.3008.3918.6227.7666.9243,1.1578.1806.2343.3537.4729.692.3474a.73.73,0,0,0,.4547-.6752,1.7174,1.7174,0,0,0-.1626-.9964A3.4881,3.4881,0,0,0,140.048,186.33Zm5.7221,21.6323c-.6529-.0876-1.1483-.1551-1.6439-.22a9.9886,9.9886,0,0,1-1.5224-.4981.4445.4445,0,0,0-.5874.2249.3486.3486,0,0,0,.119.472A3.4987,3.4987,0,0,0,145.77,207.9622Zm10.4445-20.4948c-.2415-.0085-.4783.02-.559.2979-.0735.253.1162.3744.2943.4876.4336.2754.86.5643,1.3024.8238.337.1975.47.0447.44-.323A1.4182,1.4182,0,0,0,156.2146,187.4674Zm-18.3413-1.1943a2.0378,2.0378,0,0,0-1.0968-1.4325c-.1673-.0782-.3523-.1288-.4973.0312a.4.4,0,0,0-.0079.511c.293.4268.6017.8429.9194,1.2508a.3531.3531,0,0,0,.4794.1132C137.8192,186.6629,137.8761,186.522,137.8733,186.2731Zm11.2529-1.3556c-.1146-.3019-.0406-.8243-.4957-1.0393-.2061-.0974-.9324.8914-.8624,1.19.1177.502.57.4244.9242.4781C149.0784,185.6047,149.1807,185.364,149.1262,184.9175Zm-1.9549,24.0454c.4-.0931,1.0357.0425,1.1015-.52.049-.4191-.5-.663-.9032-.6677-.5063-.006-.753.4447-.8.8871C146.527,209.0611,146.925,208.9025,147.1713,208.9629Z"/><path class="cls-3" d="M128.6463,183.9785a3.7749,3.7749,0,0,1,1.29-.1635c1.2244,0,1.1878.006,1.513,1.217.2555.9519,1.0956,1.3591,1.8676,1.76a5.6978,5.6978,0,0,1,1.2244.7957c.1789.1611.3536.4681.6323.1683a.6379.6379,0,0,0,.0913-.7966.82.82,0,0,0-.824-.459c-.2749.009-.5934.06-.6975-.3214-.0907-.3328.1162-.5458.3232-.7493.3022-.2971.6478-.6307,1.0767-.4467a1.73,1.73,0,0,1,1.0259,1.4811,3.6749,3.6749,0,0,0,1.3494,2.6254c.5174.4521.9368.6026,1.4509.0506.1876-.2013.4111-.4858.7126-.34s.1908.5076.222.7875a1.71,1.71,0,0,1-.7575,1.547c-.2953.25-.67.4747-.4472.96.2361.5144.4,1.1418,1.0916,1.1895a1.5807,1.5807,0,0,1,.8939.3805c.4985.38.7152.2564.7466-.3939.0153-.315-.0019-.6318-.007-.9478-.0158-.9934.1554-1.1953,1.1375-1.2341a11.36,11.36,0,0,1,1.8469.0181,4.7568,4.7568,0,0,1,2.9055,1.8568c.5657.6455.9987,1.3915,1.8841,1.6406.1491.0419.3907.1068.3437.3506-.0411.2129-.249.2376-.4308.253a2.49,2.49,0,0,1-1.893-.4751c-.2008-.1633-.4514-.4567-.7285-.1447a.7338.7338,0,0,0,.0085.8805c.1665.3246.49.4571.7381.6794.47.4212.4024.8055-.1125,1.0361-1.6988.7609-2.2668,2.2328-2.4528,3.96a1.7431,1.7431,0,0,1-.5892,1.075,3.0346,3.0346,0,0,0-.8469,3.1617,1.4736,1.4736,0,0,1,.0526.3888c-.002.28.09.6336-.261.7478a.6393.6393,0,0,1-.7816-.3622c-.5009-1.1234-1.3691-1.0958-2.3355-.8706a2.3418,2.3418,0,0,1-1.5047-.1809.8747.8747,0,0,0-1.2292.453,7.03,7.03,0,0,0-.6359,1.1662,2.7426,2.7426,0,0,0,1.5011,2.5105c.25.05.4425-.116.6382-.229.3124-.18.5962-.4144.9136-.5828.6974-.37,1.17-.1239,1.2319.6436a.8276.8276,0,0,0,.5366.7867,1.8573,1.8573,0,0,1,1.1177,1.4033,1.7583,1.7583,0,0,0,2.766,1.147,16.4841,16.4841,0,0,1,3.4658-1.8559,3.3791,3.3791,0,0,1,2.6836.2042,2.11,2.11,0,0,0,1.3381.256c1.0918-.1477,2.1081.39,3.1986.3449a2.0733,2.0733,0,0,0,1.5294-.5859,2.6884,2.6884,0,0,1,2.4472-.8509,21.116,21.116,0,0,1-11.2755,11.0213,3.5866,3.5866,0,0,1-1.3031.4371,1.9747,1.9747,0,0,0-1.674-1.8654c-.7605-.203-1.4614-.6154-2.2434-.8035-.6786-.1633-.7311-.6776-.4257-1.2287a8.7875,8.7875,0,0,0,.8217-2.7723.8157.8157,0,0,0-.5961-1.0706,31.7744,31.7744,0,0,1-5.2129-2.4825,3.6459,3.6459,0,0,0-1.4406-.4861,6.72,6.72,0,0,1-2.9944-1.361c-.463-.3354-.25-.8663-.31-1.3187-.0514-.3879.1144-1.1072-.67-.5088-.1724.1316-.3468.0129-.4981-.086-1.31-.8566-2.4878-1.7866-2.382-3.6419a2.9954,2.9954,0,0,0-.6453-1.7432,4.9185,4.9185,0,0,1-.7808-1.6131,1.3055,1.3055,0,0,1,.1121-1.0555c.81-1.2267.7317-2.6709.8293-4.0276.0665-.923-.5288-1.8283-.4564-2.8356.071-.9885-.0626-1.9629.79-2.7594.5014-.4682-.2928-1.6678-1.1877-1.76a6.3232,6.3232,0,0,0-2.2219.0614,2.666,2.666,0,0,1-1.504-.17.5817.5817,0,0,1-.4231-.5157c-.018-.284.2174-.401.4338-.4853a3.7781,3.7781,0,0,1,.6647-.19,1.5915,1.5915,0,0,0,1.31-1.0781,1.0366,1.0366,0,0,1,1.2943-.8082C128.5405,184.8935,128.6744,184.5042,128.6463,183.9785Z"/><path class="cls-3" d="M155.7834,182.6976c.0422.758.0958,1.5156.122,2.2742a1.6708,1.6708,0,0,0,.43.9041c.2.2865.3081.5534.0461.8467a.6161.6161,0,0,1-.8958.1444,2.5278,2.5278,0,0,0-1.8745-.7308c-.2519.013-.433-.2673-.5918-.4708a1.31,1.31,0,0,0-1.042-.578c-.2816-.0047-.5511-.1154-.5987-.3961-.0659-.3878.31-.4374.5547-.5285.4346-.1615.9191-.2047.717-.9226-.3151-1.119-.9511-1.9086-1.5712-1.7419-2.6587.7148-4.4054-.6842-5.8764-2.6607-1.0256-1.378-2.1759-1.5923-3.5378-.5479a1.0167,1.0167,0,0,1-.7007.2859,9.79,9.79,0,0,1-3.3841-.5236,2.2538,2.2538,0,0,0-2.8226.2541,13.0062,13.0062,0,0,1-2.7482,1.5578,2.8379,2.8379,0,0,0-1.5514,1.7478,4.2463,4.2463,0,0,1-1.4189,1.8253c-.1694.1566-.4.2485-.4016.5327-.3293.0891-.6161.1477-.7187-.34a.6874.6874,0,0,0-.6365-.5981,1.6186,1.6186,0,0,1-1.3221-.829,1.689,1.689,0,0,0-1.2769-.6054c-.1984-.0376-.4488-.0349-.445-.3189.0029-.2168.2121-.2683.3863-.3208a5.5477,5.5477,0,0,1,1.7318-.289c.2634.0061.5129.0118.6458-.2948a.6065.6065,0,0,0-.1866-.7088c-.27-.2707-.48-.6233-.867-.7552a2.9882,2.9882,0,0,1,1.22-.7837,23.4137,23.4137,0,0,1,13.283-2.3908A24.9825,24.9825,0,0,1,153.73,180.805,13.2683,13.2683,0,0,1,155.7834,182.6976Z"/><path class="cls-3" d="M162.0569,200.2369a4.3009,4.3009,0,0,1-2.1082-3.0994c-.2289-1.23-.45-2.4641-.6052-3.7056a2.6985,2.6985,0,0,0-.7886-1.6505,1.248,1.248,0,0,1-.2537-1.6808,4.6509,4.6509,0,0,0,.3422-2.912c-.0355-.2846-.0666-.57-.1-.8547a21.5331,21.5331,0,0,1,3.3835,9.814A23.2463,23.2463,0,0,1,162.0569,200.2369Z"/><path class="cls-3" d="M146.6665,185.59a3.1384,3.1384,0,0,0,.6943,2.2967,2.9,2.9,0,0,1,.5316,1.2959.66.66,0,0,1-.1332.6654c-.2248.1925-.4683.0248-.6453-.0739a7.3019,7.3019,0,0,1-3.0754-2.89,2.504,2.504,0,0,0-2.6149-1.516,6.196,6.196,0,0,1-2.7147-.4094c-.6816-.2645-.8267-.577-.4509-1.1892a2.416,2.416,0,0,1,1.3744-1.2022,12.5327,12.5327,0,0,1,2.9476-.47,2.4113,2.4113,0,0,1,1.768.6317,3.7186,3.7186,0,0,0,.9741.6235C146.6752,183.9791,146.68,183.9689,146.6665,185.59Z"/><path class="cls-3" d="M140.048,186.33a3.4881,3.4881,0,0,1,2.91,1.8855,1.7174,1.7174,0,0,1,.1626.9964.73.73,0,0,1-.4547.6752c-.3383.1255-.5114-.1131-.692-.3474-.3016-.3912-.6235-.766-.9243-1.1578a2.3942,2.3942,0,0,0-1.7567-.83c-.2839-.0377-.8011.0589-.7859-.527.0144-.5577.4876-.5325.8317-.646A3.4675,3.4675,0,0,1,140.048,186.33Z"/><path class="cls-3" d="M145.77,207.9622a3.4987,3.4987,0,0,1-3.6347-.0214.3486.3486,0,0,1-.119-.472.4445.4445,0,0,1,.5874-.2249,9.9886,9.9886,0,0,0,1.5224.4981C144.6218,207.8071,145.1172,207.8746,145.77,207.9622Z"/><path class="cls-3" d="M156.2147,187.4677a1.4177,1.4177,0,0,1,1.478,1.286c.03.3677-.1034.52-.44.323-.4426-.2595-.8688-.5484-1.3024-.8238-.1781-.1132-.3678-.2346-.2943-.4876C155.7363,187.4873,155.9731,187.4589,156.2147,187.4677Z"/><path class="cls-3" d="M137.8733,186.2731c.0028.2489-.0541.39-.2032.4737a.3531.3531,0,0,1-.4794-.1132c-.3177-.4079-.6264-.824-.9194-1.2508a.4.4,0,0,1,.0079-.511c.145-.16.33-.1094.4973-.0312A2.0378,2.0378,0,0,1,137.8733,186.2731Z"/><path class="cls-3" d="M149.1262,184.9175c.0545.4465-.0478.6872-.4339.6286-.3541-.0537-.8065.0239-.9242-.4781-.07-.2984.6563-1.2872.8624-1.19C149.0856,184.0932,149.0116,184.6156,149.1262,184.9175Z"/><path class="cls-3" d="M147.1713,208.9629c-.2463-.06-.6443.0982-.6018-.3008.0471-.4424.2938-.8931.8-.8871.4034.0047.9522.2486.9032.6677C148.207,209.0054,147.5717,208.87,147.1713,208.9629Z"/><path class="cls-2" d="M259.5846,222.8068c1.2117.2424.7069,1.2179.7083,1.8654q.0451,21.468.0237,42.936a5.589,5.589,0,0,0,.0031.6576c.1.8417-.2277,1.2186-1.1042,1.1358-.5433-.0513-1.0958-.0043-1.6441-.0043q-102.7339,0-205.4679-.0058c-2.5166,0-2.1521.3154-2.1545-2.19q-.02-21.0567-.0048-42.1135c0-.7114.04-1.4228.0613-2.1334a.272.272,0,0,0,.23-.1518q.3726,0,.7441,0c.65.0495,1.3.1409,1.9508.1414q21.88.0141,43.759-.0141a2.4887,2.4887,0,0,1,2.5257,1.3455,32.3191,32.3191,0,0,0,4.684,6.3213c11.3281,12.0266,25.2254,17.2991,41.6279,15.0411,14.0112-1.9288,24.8972-9.1384,32.6759-20.94a3.382,3.382,0,0,1,3.2621-1.7841q38.001.0766,76.0024.0313C258.1731,222.9455,258.8788,222.8551,259.5846,222.8068Z"/><path class="cls-2" d="M50.0123,175.6042c-.0233-.3272-.0668-.6543-.0668-.9815q-.0051-21.96-.0293-43.9209c-.0033-1.1993.2621-1.5672,1.5272-1.5666q103.6338.05,207.2676.0018c1.3015-.0006,1.6385.3472,1.6345,1.6361q-.0676,21.6313-.0142,43.2629c.0016,1.0433-.0466,1.8758-1.4087,1.7234-.7047-.0494-1.41-.1409-2.1157-.1411q-37.8291-.0108-75.6582.0267a2.9671,2.9671,0,0,1-2.9026-1.5828,44.3862,44.3862,0,0,0-15.36-14.9927,46.8505,46.8505,0,0,0-63.888,15.4041,2.1849,2.1849,0,0,1-2.1106,1.1578Q73.45,175.5807,50.0123,175.6042Z"/><path class="cls-4" d="M50.0123,175.6042q23.4375.0024,46.875.0272a2.1849,2.1849,0,0,0,2.1106-1.1578,46.8505,46.8505,0,0,1,63.888-15.4041,44.3862,44.3862,0,0,1,15.36,14.9927,2.9671,2.9671,0,0,0,2.9026,1.5828q37.8289-.0666,75.6582-.0267c.7055,0,1.411.0917,2.1157.1411a3.9875,3.9875,0,0,1-1.941.1617q-37.7528.0138-75.5055.0233c-.5549,0-1.3375-.358-1.6335.2984-.22.487.396.9537.6358,1.4334.513,1.0266.9389,2.0967,1.45,3.1241.3762.7557-.1161.9807-.6444,1.196q-9.76,3.9783-19.524,7.9462c-.9448.384-1.4687.0222-1.93-.8816-3.7717-7.3938-9.84-11.839-17.9927-12.9754a22.5292,22.5292,0,0,0-18.17,5.286c-4.3,3.6119-7.3369,8.1746-8.06,13.6951-1.2313,9.4043,1.3585,17.5315,9.4284,23.3427a23.3652,23.3652,0,0,0,28.9639-1.1659,24.2059,24.2059,0,0,0,5.9014-7.8833c.575-1.143,1.1576-1.18,2.1718-.7639q9.6294,3.9481,19.2863,7.8288c.8541.3429.8814.7683.5079,1.4937-.6485,1.26-1.1963,2.5717-1.8582,3.8238-.3435.65-.245.9006.4849.8949.4386-.0034.8773.0014,1.3159.0014q38,0,75.9991.0075a3.4711,3.4711,0,0,1,1.7751.1609c-.7064.0479-1.4121.1383-2.1179.1385q-38.0012.01-76.0024-.0313a3.382,3.382,0,0,0-3.2621,1.7841c-7.7787,11.8013-18.6647,19.0109-32.6759,20.94-16.4025,2.258-30.3-3.0145-41.6279-15.0411a32.3191,32.3191,0,0,1-4.684-6.3213,2.4887,2.4887,0,0,0-2.5257-1.3455q-21.8793.0539-43.759.0141c-.6506,0-1.3011-.0919-1.9508-.1414a5.2846,5.2846,0,0,1,2.2706-.1584q21.4665-.0182,42.9332-.0087c1.8366,0,1.8172.0053,1.0008-1.62a67.7557,67.7557,0,0,1-3.6169-9.14A40.9276,40.9276,0,0,1,91.8786,196.04a45.8188,45.8188,0,0,1,5.1927-18.3141,3.0574,3.0574,0,0,0,.6422-1.7995h-1.6q-22.2067,0-44.4135-.014C51.1372,175.9115,50.4851,176.1837,50.0123,175.6042Z"/><path class="cls-2" d="M402.4632,248.879c0,1.404-.0383,2.8094.0142,4.2113.0323.8611-.283,1.1539-1.138,1.1348-2.0831-.0467-4.17-.0761-6.2511.0022-1.14.0428-1.5071-.3055-1.4949-1.4737.0569-5.4291.025-10.859.0254-16.2886.0006-10.256.0274-20.5121-.0283-30.7677-.0075-1.3782.2121-1.98,1.7668-1.85a45.167,45.167,0,0,0,5.7544.0162c1.0833-.0481,1.3857.2931,1.3771,1.3694-.0483,6.0318-.0233,12.0642-.0233,18.0971.1395.0126.2929.0645.3238.0237,4.228-5.587,10.0061-6.5985,16.3441-5.1582,6.73,1.5294,10.5285,6.1756,12.046,12.733a21.9176,21.9176,0,0,1-1.7145,15.3407c-4.76,9.3545-19.9175,11.4814-26.3434,2.9189-.0983-.1309-.2046-.2558-.3073-.3835ZM402.46,234.96c.0157,6.4771,3.0282,10.681,7.7512,11.7155,4.8134,1.0544,9.31-.9463,11.3777-5.0618,2.3928-4.7635,1.4072-11.0634-2.34-14.1922A10.2334,10.2334,0,0,0,402.46,234.96Z"/><path class="cls-2" d="M698.7133,248.6479c-6.7707,8.8236-19.2786,6.7315-24.5013,1.0316a17.3934,17.3934,0,0,1-4.7147-10.1718c-.6156-5.9675.077-11.513,4.0466-16.4093,5.6546-6.9745,19.3077-7.7685,24.7121.0983.0494.0718.1688.0955.4588.25,0-2.1608,0-4.2128,0-6.2648-.0011-4.0031.0264-8.0067-.0253-12.0092-.0128-.986.2284-1.35,1.2743-1.3093,2.0807.0816,4.1687.0781,6.25.0027,1.0637-.0385,1.4119.2711,1.3877,1.3668-.0712,3.2339-.0289,6.47-.029,9.7058,0,12.503-.0286,25.0063.0372,37.509.0078,1.4935-.4185,1.8771-1.8417,1.7881-1.9665-.123-3.9471-.059-5.92-.0158-.8406.0184-1.1858-.2461-1.1491-1.125C698.7553,251.7282,698.7133,250.3574,698.7133,248.6479ZM678.17,236.0318c-.0506,6.9778,4.5222,11.35,10.6178,11.1964a9.8117,9.8117,0,0,0,9.4259-7.3445c1.4223-4.7919-.0723-10.2449-3.6493-12.7864a10.1264,10.1264,0,0,0-10.8927-.8042C679.7538,228.233,678.2261,231.7811,678.17,236.0318Z"/><path class="cls-2" d="M522.2231,186.5c-5.96,7.5348-14.4743,7.4774-21.3661,3.7252-4.3538-2.37-6.7336-6.5881-7.6754-11.5222-1.0889-5.7048-.5423-11.1243,2.6917-16.0927,5.7684-8.862,20.331-9.4546,25.9029-1.2826.0507.0744.1729.1.4485.2507,0-3.03,0-5.9573,0-8.8848,0-3.0716.07-6.1456-.0318-9.2139-.0447-1.3476.4274-1.6834,1.6787-1.6127a38.35,38.35,0,0,0,5.0975-.0053c1.5521-.12,2.0445.3256,2.0373,1.9639-.0661,15.0837-.039,30.1678-.0389,45.2518,0,3.0917,0,3.0917-3.1469,3.0877-1.3164-.0017-2.6379-.0766-3.9477.0162-1.2422.088-1.806-.2437-1.6752-1.6066C522.3174,189.3278,522.2231,188.0607,522.2231,186.5ZM511.8124,185.17c6.0243.0256,10.37-4.4567,10.4018-10.7292.0338-6.6183-4.1476-11.28-10.186-11.3569-5.9885-.0759-10.4348,4.5541-10.4648,10.897C501.5319,180.6322,505.6647,185.1441,511.8124,185.17Z"/><path class="cls-2" d="M298.5318,144.5406c8.4156.0054,14.183,2.258,19.2111,6.5723.9269.7952.8343,1.2852.15,2.0933-1.2391,1.4626-2.4739,2.94-3.57,4.509-.6966.9974-1.0984.8072-1.8462.0733a16.7813,16.7813,0,0,0-12.0291-5.2284,15.7592,15.7592,0,0,0-15.7816,14.59A15.5851,15.5851,0,0,0,298.67,183.8812c5.2.5844,9.708-1.16,13.6549-4.4381.893-.7418,1.3886-.9044,2.1749.11a48.8482,48.8482,0,0,0,3.5083,3.9171c.6775.7024.7014,1.177-.0527,1.8707a26.2431,26.2431,0,0,1-14.2561,6.9577,24.3789,24.3789,0,0,1-20.5635-6.0823,23.0574,23.0574,0,0,1-7.3119-13.1055c-1.7592-9.0322,1.0067-16.6074,7.8358-22.6319A23.5023,23.5023,0,0,1,298.5318,144.5406Z"/><path class="cls-2" d="M302.2453,254.5941c-14.8983-.1227-24.5352-8.2352-26.5439-20.6052-1.3991-8.6156,1.4557-15.7678,7.8959-21.52a23.8393,23.8393,0,0,1,12.9637-5.7047,25.7468,25.7468,0,0,1,21.1933,6.3528c.8389.7225.9412,1.2455.1473,2.12a57.1484,57.1484,0,0,0-3.6,4.4872c-.6113.8279-.975.8449-1.7264.1a16.618,16.618,0,0,0-10.2183-5.1554c-6.7162-.6321-12.1345,1.82-15.5554,7.68-3.3036,5.66-2.9451,11.4993.6663,16.9274,4.6738,7.0252,14.1933,8.8685,21.7686,4.3911a21.6627,21.6627,0,0,0,3.2077-2.2825c.78-.68,1.249-.8136,1.9632.0862,1.1573,1.458,2.4073,2.85,3.7022,4.1882.6616.6838.5857,1.0728-.0866,1.6754C312.8886,251.937,306.9478,254.4966,302.2453,254.5941Z"/><path class="cls-2" d="M347.4422,249.8389a13.6128,13.6128,0,0,1-8.6575,4.5628c-3.4673.4625-6.91.3614-10.0822-1.37a10.8883,10.8883,0,0,1-5.5622-11.8049c.7078-4.3259,4.2316-7.4669,9.4085-8.3577,4.3559-.75,8.7518-.316,13.129-.3674,1.3632-.0161,1.7968-.2874,1.5873-1.76-.5567-3.9114-3.7388-6.2572-8.2047-5.9625a20.1591,20.1591,0,0,0-9.5157,2.7708c-.9674.6-1.4231.3385-1.8607-.6078-.62-1.34-1.3191-2.6473-2.0447-3.9345-.3585-.6361-.3854-1.0007.3362-1.4179a28.0164,28.0164,0,0,1,20.2673-3.4356c6.1183,1.2734,9.5325,5.43,9.7115,11.78.2177,7.7246.0853,15.4589.1248,23.189.0038.7435-.19,1.1034-1.01,1.09-2.1924-.0363-4.3861-.0308-6.5787.001-.7708.0112-1.0954-.2581-1.0588-1.0489C347.4762,252.2023,347.4422,251.235,347.4422,249.8389Zm-9.2508-2.092c.5451-.0349,1.0914-.0571,1.6352-.1066,4.5712-.4166,7.621-3.6289,7.5675-7.8622-.0131-1.04-.26-1.4327-1.3841-1.399-3.0579.0915-6.12.0233-9.18.0821a9.9394,9.9394,0,0,0-2.5749.4072,3.6285,3.6285,0,0,0-2.8664,3.21,4.5068,4.5068,0,0,0,1.8174,4.4662A7.5955,7.5955,0,0,0,338.1914,247.7469Z"/><path class="cls-2" d="M546.2642,230.453c.0008-7.3489.0343-14.6981-.03-22.0465-.0116-1.3084.347-1.6442,1.6427-1.6369q14.7249.0832,29.45.0047c1.2779-.0066,1.7556.295,1.6487,1.63a34.0918,34.0918,0,0,0-.0306,4.7675c.0762,1.2608-.3906,1.571-1.5954,1.5619-6.7452-.0511-13.4915.0152-20.2364-.0555-1.3962-.0146-1.9161.2617-1.8558,1.7829.1283,3.2306.0732,6.4705.0184,9.7053-.0181,1.0665.3035,1.4055,1.4,1.3964,6.1968-.0511,12.3947.0122,18.5912-.0555,1.3074-.0142,1.72.355,1.6229,1.6528a35.5008,35.5008,0,0,0-.0019,4.6036c.068,1.216-.1832,1.7023-1.5928,1.683-6.1408-.0841-12.2843.0307-18.4254-.0444-1.36-.0167-1.6182.4068-1.6028,1.6507.0641,5.1545-.0216,10.3109.06,15.4648.0223,1.4081-.4322,1.7913-1.777,1.7149a52.9472,52.9472,0,0,0-5.7555-.0025c-1.241.065-1.5693-.3342-1.56-1.5664C546.2924,245.2608,546.2635,237.8568,546.2642,230.453Z"/><path class="cls-2" d="M477.4653,187.7543c-4.1311,4.6494-9.3279,5.1695-14.5873,4.86-5.0759-.2989-9.5239-5.31-9.784-10.3869-.3045-5.945,2.6913-9.8641,8.6018-11.2158a26.6129,26.6129,0,0,1,5.7062-.6431c2.413-.0216,4.8264-.002,7.24-.0056,3.0927-.0047,3.3341-.3621,2.2945-3.3733-.8663-2.5087-3.4978-4.1567-6.8184-4.2289a19.1722,19.1722,0,0,0-10.37,2.6509c-1.0166.6017-1.5729.6166-2.0757-.5933a39.059,39.059,0,0,0-2.0385-3.938c-.3469-.6232-.2233-.9606.3945-1.2981,6.5863-3.5979,13.5377-5.139,20.9048-3.1828,5.8781,1.5608,8.9922,5.6973,9.0864,11.783.117,7.5672.0336,15.1374.0829,22.706.0067,1.0226-.3325,1.3208-1.3209,1.29-2.0274-.0626-4.059-.0533-6.087,0-.9054.0236-1.3123-.2343-1.243-1.1976C477.5175,190.0542,477.4653,189.1193,477.4653,187.7543Zm-9.2308-1.9936a10.0414,10.0414,0,0,0,5.4632-1.3657,6.7968,6.7968,0,0,0,3.7252-7.2212c-.0668-.5981-.2318-.8995-.8708-.883-3.819.0984-7.6531-.2773-11.4556.3084a4.1275,4.1275,0,0,0-3.67,3.2551,4.6483,4.6483,0,0,0,2.2151,4.9021A7.9079,7.9079,0,0,0,468.2345,185.7607Z"/><path class="cls-2" d="M436.2273,235.9937c-.1-10.3959,7.2376-17.9537,17.6814-18.3073,4.5417-.1537,8.8779.4914,12.7166,3.0532,5.6716,3.785,7.8641,9.33,7.7313,15.9528-.1372,6.8476-3.0486,12.2186-9.0414,15.5507a20.7909,20.7909,0,0,1-14.6712,1.8712C441.5419,252.2157,436.3189,245.5784,436.2273,235.9937Zm19.1442-10.7349c-6.0448-.0138-10.3883,4.5034-10.33,10.7433.0615,6.6047,4.1623,11.077,10.1829,11.1054,5.904.0279,10.299-4.48,10.351-10.6167C465.6314,229.8734,461.4519,225.2726,455.3715,225.2588Z"/><path class="cls-2" d="M341.8957,155.727c6.8374.044,12.7,2.2689,16.3,8.3621,6.5583,11.1011,1.2807,27.8553-15.3525,28.3706a21.8551,21.8551,0,0,1-9.34-1.45,16.5274,16.5274,0,0,1-10.527-13.4041c-1.1089-7.2525.5295-13.6551,6.6892-18.2739A19.1636,19.1636,0,0,1,341.8957,155.727ZM331.58,174.0646c.0352,5.5418,2.8638,9.6595,7.3783,10.7406a10.3082,10.3082,0,0,0,13.0556-10.9615c-.25-3.95-1.49-7.4693-5.2368-9.4414C340.3362,161.0122,331.4226,164.6354,331.58,174.0646Z"/><path class="cls-2" d="M400.075,155.7217c9.1993.076,15.6628,4.0448,18.2662,10.97,3.4943,9.2954.5635,21.2479-11.0031,24.8388a21.3422,21.3422,0,0,1-17.7927-1.8665,16.1556,16.1556,0,0,1-7.6835-11.69c-1.224-7.6072.4785-14.202,7.0147-18.8955A18.299,18.299,0,0,1,400.075,155.7217Zm10.7306,18.6553c-.1182-4.45-1.4171-8.3007-5.774-10.2435-7.1678-3.1962-14.4871,1.5314-14.6724,9.4178-.0946,4.0281,1.0014,7.6417,4.5914,9.9466a9.9623,9.9623,0,0,0,10.597.4157C409.3369,181.905,410.6939,178.4545,410.8056,174.377Z"/><path class="cls-2" d="M558.241,155.7767c7.7914.0611,14.0184,2.93,17.3641,10.3284a18.6583,18.6583,0,0,1-7.539,24.1174c-7.5483,4.21-18.8213,2.7121-24.3214-3.465-5.336-5.9927-6.0992-13.0291-3.2663-20.2624,2.7652-7.0608,8.6069-10.1645,15.9551-10.7125C557.0328,155.7379,557.6384,155.7767,558.241,155.7767Zm-10.3332,18.3169c.0222,3.6192,1.0456,6.8465,4.0652,9.0666a10.0331,10.0331,0,0,0,10.5653,1.0334c3.8492-1.7139,5.5519-5.0216,5.7668-9.0482.2383-4.4672-.9646-8.479-5.1959-10.7312C556.4587,160.8744,547.7725,164.9149,547.9078,174.0936Z"/><path class="cls-2" d="M636.1816,224.45c.8452-1.1033,1.3785-1.9159,2.0253-2.625,4.9843-5.4649,16.5536-5.741,21.113-.2346a12.7461,12.7461,0,0,1,3.1327,7.61c.3864,7.947.0778,15.9036.1833,23.8553.0134,1.0125-.4729,1.175-1.3127,1.1608-1.9193-.0326-3.8441-.092-5.7578.0163-1.3413.0759-1.787-.3-1.7681-1.7084.0783-5.8134.0362-11.6284.0276-17.4428a12.0287,12.0287,0,0,0-.899-4.9752,6.2271,6.2271,0,0,0-6.2792-3.834c-1.3591.0863-2.7259-.2379-4.0811.1965-3.8023,1.2188-6.3359,4.9359-6.3732,9.5914-.0439,5.4849-.0576,10.9711.0219,16.4552.02,1.3872-.3854,1.802-1.7476,1.7209-1.9131-.114-3.8391-.0707-5.7573-.0147-.9721.0284-1.3649-.2611-1.3625-1.2919q.04-16.8672.0024-33.7344c-.002-.9353.3031-1.2478,1.2328-1.224,2.1378.0547,4.2792.0628,6.4167.0041.96-.0264,1.23.334,1.1984,1.24C636.1412,220.803,636.1816,222.3945,636.1816,224.45Z"/><path class="cls-2" d="M489.1864,224.51c4.2889-6.4193,10.1342-7.7387,16.7235-6.4825,5.2878,1.0082,8.684,4.9721,9.4485,10.2958a31.5257,31.5257,0,0,1,.325,4.5889c-.02,6.6374-.0321,13.2751.017,19.9122.008,1.0793-.2883,1.4443-1.376,1.4031-1.9719-.0747-3.9519-.09-5.9224.0006-1.2612.0584-1.6784-.2722-1.66-1.628.0833-6.0329.0573-12.0678.0226-18.1016-.0146-2.5266-.4966-4.9282-2.5569-6.6828a5.5439,5.5439,0,0,0-4.3485-1.5579c-1.3571.1574-2.7379-.2477-4.0882.1376a9.09,9.09,0,0,0-6.4135,8.1293c-.4041,5.8594-.1435,11.7333-.1275,17.6.0045,1.6245-.3554,2.2727-2.0848,2.1218a52.0019,52.0019,0,0,0-5.5917-.0345c-.8352.0174-1.1527-.2408-1.1509-1.1214q.0348-16.95-.0028-33.9c-.0023-.9327.291-1.2451,1.22-1.22,2.0831.0558,4.17.0636,6.2525.0064.9963-.0274,1.3714.3016,1.3309,1.3126C489.14,220.8648,489.1864,222.4449,489.1864,224.51Z"/><path class="cls-2" d="M610.0966,248.1063a14.0693,14.0693,0,0,1-8.2312,5.9131c-6.2743,1.48-12.91.0641-15.9195-5.9086a13.4177,13.4177,0,0,1-1.543-5.9924c-.0427-7.6206-.0286-15.2416-.0812-22.8622-.0072-1.0394.381-1.3115,1.3483-1.2846,1.9727.055,3.9514.0828,5.9212-.0121,1.2439-.06,1.5931.3728,1.5812,1.5894-.0552,5.6481-.0474,11.2973-.0086,16.9457a18.08,18.08,0,0,0,.3678,4.2438c1.3809,5.5008,8.8874,7.3613,13.1746,3.3529a10.8751,10.8751,0,0,0,3.3764-8.2688q.0658-8.1435-.0125-16.2876c-.0136-1.2086.2848-1.6376,1.5468-1.5731,2.0786.1061,4.167.0567,6.25.0146.8521-.0172,1.137.28,1.1354,1.1388q-.0317,16.946.0048,33.8921c.0023.9518-.3294,1.2348-1.2394,1.2144-2.1378-.048-4.2789-.0665-6.4155.0028-1.0546.0342-1.3083-.39-1.2721-1.3493C610.14,251.2876,610.0966,249.6961,610.0966,248.1063Z"/><path class="cls-2" d="M375.5577,167.192c.0025,7.679-.0472,15.3586.0422,23.0366.019,1.6327-.4764,2.0817-2.0336,1.9621a42.283,42.283,0,0,0-5.2622-.0079c-1.1376.0549-1.5231-.2972-1.5025-1.4669.0663-3.7835.0264-7.5689.0264-11.3536,0-11.9025.029-23.8051-.0378-35.7073-.0085-1.4993.4426-1.89,1.8536-1.7927a37.3425,37.3425,0,0,0,5.0973.0008c1.4151-.0969,1.8669.305,1.8517,1.7986C375.5129,151.5044,375.5554,159.3484,375.5577,167.192Z"/><path class="cls-2" d="M374.81,224.28c2.72-4.0122,6.2353-6.2784,10.9779-6.6119.9982-.07,1.3731.1971,1.3383,1.2346-.066,1.97-.0574,3.9449-.0074,5.9159.023.9061-.2824,1.2473-1.2046,1.296a13.1518,13.1518,0,0,0-5.7109,1.2644,9.6267,9.6267,0,0,0-5.3761,8.9317c-.0735,5.4775-.0487,10.9571.0051,16.4352.0111,1.1289-.2744,1.5378-1.4525,1.4839-2.0228-.0926-4.0537-.0553-6.08-.0108-.9406.0207-1.3734-.2187-1.37-1.279q.0473-16.8465.0065-33.6931c-.0016-.879.2-1.2967,1.1789-1.2724,2.19.0544,4.384.0628,6.5731-.0079,1.026-.0332,1.1581.4382,1.1354,1.2815C374.7782,220.9245,374.81,222.6027,374.81,224.28Z"/><path class="cls-2" d="M436.2582,162.1418a14.367,14.367,0,0,1,10.9714-6.471c1.2648-.1051,1.3512.3068,1.3285,1.2838-.0433,1.8628-.0872,3.7312.0128,5.59.065,1.2068-.2656,1.5833-1.5249,1.5744a10.4162,10.4162,0,0,0-9.0785,4.3885,10.66,10.66,0,0,0-1.79,6.3765c-.0111,5.2076-.0362,10.4157.0259,15.6226.0151,1.264-.3142,1.7555-1.6469,1.6829-1.9676-.1072-3.9464-.067-5.9183-.0133-.9248.0252-1.2281-.2815-1.2259-1.2171q.04-16.9384.002-33.877c-.0021-.9264.2767-1.245,1.2155-1.2194,2.1364.0582,4.2762.0546,6.4128.001.95-.0238,1.25.3508,1.2276,1.2512C436.2284,158.7893,436.2582,160.466,436.2582,162.1418Z"/><path class="cls-5" d="M50.2354,222.8027a.272.272,0,0,1-.23.1518C50.01,222.7927,50.06,222.7032,50.2354,222.8027Z"/><circle class="cls-6" cx="138.8284" cy="199.7388" r="23.7438"/><rect class="cls-2" y="378.9877" width="760" height="380.6504"/><path class="cls-7" d="M148.0292,582.8481a19.52,19.52,0,0,1-5.1138,1.3055,31.129,31.129,0,0,1-5.05.3516,24.4541,24.4541,0,0,1-14.7-5.11,22.3148,22.3148,0,0,1-8.7206-13.48,22.9982,22.9982,0,0,1,5.0209-20.45,23.7914,23.7914,0,0,1,6.0332-5.08.7487.7487,0,0,1,.5092-.1791c.3988.1325.6145.4865.893.7584a.6.6,0,0,1,.1922.7118c-.1369.3078-.3939.3021-.6651.2961a5.8447,5.8447,0,0,0-1.7839.29c-.1793.0528-.3948.1045-.3978.3222-.0039.2852.254.2825.4584.32a1.7575,1.7575,0,0,1,1.3151.608,1.6721,1.6721,0,0,0,1.3618.8325.7006.7006,0,0,1,.6556.6006c.1057.4893.4011.4305.74.3409l.0089.009c.029.5279-.109.9188-.7488.7933a1.0683,1.0683,0,0,0-1.3331.8115,1.63,1.63,0,0,1-1.3491,1.0827,3.9642,3.9642,0,0,0-.6846.19c-.2229.0846-.4654.2021-.4468.4873a.588.588,0,0,0,.4357.5179,2.8114,2.8114,0,0,0,1.5492.1708,6.6745,6.6745,0,0,1,2.2885-.0616c.9217.0924,1.74,1.2971,1.2233,1.7673-.8785.8-.7408,1.7783-.814,2.7711-.0745,1.0115.5386,1.9206.47,2.8475-.1007,1.3624-.02,2.8127-.8543,4.0446a1.2829,1.2829,0,0,0-.1155,1.06,4.8916,4.8916,0,0,0,.8042,1.62,2.9621,2.9621,0,0,1,.6647,1.7506c-.1089,1.8631,1.1039,2.7971,2.4535,3.6572.1558.0993.3355.2186.5131.0864.8074-.6009.6366.1214.69.511.0618.4543-.1581.9874.3188,1.3242a7.0053,7.0053,0,0,0,3.0843,1.3667,3.8221,3.8221,0,0,1,1.4837.4882,33.11,33.11,0,0,0,5.3693,2.493.8172.8172,0,0,1,.614,1.0752,8.6639,8.6639,0,0,1-.8463,2.7839c-.3147.5534-.2605,1.07.4384,1.2339.8054.1889,1.5274.6031,2.3107.8069A2.0022,2.0022,0,0,1,148.0292,582.8481Z"/><path class="cls-7" d="M156.7372,544.009a14.0064,14.0064,0,0,1,2.8432,3.6516c.0341.2861.0661.5725.1027.8583a4.5648,4.5648,0,0,1-.3525,2.9243,1.2322,1.2322,0,0,0,.2613,1.6879,2.6833,2.6833,0,0,1,.8123,1.6575c.16,1.2467.3876,2.4859.6233,3.7212a4.3192,4.3192,0,0,0,2.1714,3.1124,24.2733,24.2733,0,0,1-2.2139,9.7193,2.81,2.81,0,0,0-2.5206.8545,2.1667,2.1667,0,0,1-1.5753.5884c-1.1232.0457-2.17-.4947-3.2946-.3464a2.2209,2.2209,0,0,1-1.3782-.257,3.5606,3.5606,0,0,0-2.764-.2052,17.1262,17.1262,0,0,0-3.57,1.8638,1.8217,1.8217,0,0,1-2.849-1.1519,1.8751,1.8751,0,0,0-1.1512-1.4091.832.832,0,0,1-.5527-.79c-.0637-.7707-.55-1.018-1.2688-.6463-.327.1692-.6193.4043-.941.5853-.2017.1134-.3995.2807-.6574.23a2.7452,2.7452,0,0,1-1.5461-2.521,7.0049,7.0049,0,0,1,.6549-1.1712.91.91,0,0,1,1.2661-.4549,2.4684,2.4684,0,0,0,1.55.1817c.9954-.2262,1.89-.2539,2.4055.8742a.6638.6638,0,0,0,.8051.3638c.3614-.1147.2667-.47.2688-.751a1.4465,1.4465,0,0,0-.0542-.39,2.9973,2.9973,0,0,1,.8723-3.1751,1.7389,1.7389,0,0,0,.6069-1.08c.1916-1.7345.7765-3.2126,2.5263-3.9767.53-.2316.6-.6175.1159-1.0405-.2552-.2232-.5888-.3562-.76-.6823-.1589-.3023-.2529-.6162-.0088-.8842.2855-.3133.5436-.0186.75.1454a2.614,2.614,0,0,0,1.95.477c.1872-.0154.4013-.04.4436-.254.0485-.2448-.2-.31-.3539-.3521-.912-.25-1.358-.9992-1.9406-1.6475a4.9136,4.9136,0,0,0-2.9927-1.8646,11.99,11.99,0,0,0-1.9023-.0182c-1.0116.039-1.1879.2417-1.1716,1.2393.0052.3173.0229.6354.0072.9518-.0323.6531-.2555.7775-.769.3956a1.65,1.65,0,0,0-.9207-.3822c-.7124-.0478-.8812-.6779-1.1244-1.1945-.2294-.4873.1565-.713.4607-.964a1.7037,1.7037,0,0,0,.78-1.5536c-.0322-.281.0812-.6445-.2286-.7907s-.5409.139-.734.3412c-.53.5542-.9615.4031-1.4944-.0509a3.6614,3.6614,0,0,1-1.39-2.6364,1.7391,1.7391,0,0,0-1.0567-1.4874c-.4416-.1847-.7976.15-1.1089.4486-.2132.2044-.4263.4183-.3329.7525.1073.3834.4353.3318.7184.3227a.8485.8485,0,0,1,.8487.461.6286.6286,0,0,1-.094.8c-.2871.3011-.4671-.0072-.6513-.169a5.8885,5.8885,0,0,0-1.2611-.7991c-.7951-.403-1.66-.812-1.9237-1.7678-.3348-1.2161-.2972-1.2219-1.5583-1.2222a3.98,3.98,0,0,0-1.3285.1642l-.0088-.0088c.0012-.2855.2393-.3777.4137-.535a4.28,4.28,0,0,0,1.4614-1.833,2.876,2.876,0,0,1,1.598-1.7552,13.4934,13.4934,0,0,0,2.8306-1.5643,2.3667,2.3667,0,0,1,2.9073-.2552,10.3225,10.3225,0,0,0,3.4856.5258,1.0617,1.0617,0,0,0,.7217-.2871c1.4028-1.0488,2.5876-.8336,3.6439.55,1.5151,1.9848,3.3142,3.39,6.0527,2.6719.6387-.1674,1.2937.6255,1.6183,1.7493.2082.7209-.2909.7642-.7385.9265-.2526.0915-.6392.1413-.5714.5307.0491.2819.3267.3931.6167.3977a1.3584,1.3584,0,0,1,1.0733.58c.1635.2043.35.4859.6095.4728a2.64,2.64,0,0,1,1.9308.7339.6449.6449,0,0,0,.9227-.145c.27-.2946.1585-.5626-.0475-.85a1.66,1.66,0,0,1-.4432-.9078C156.8359,545.531,156.7808,544.77,156.7372,544.009Zm-9.39,2.905c.0135-1.6283.0089-1.6181-1.3848-2.2467a3.8425,3.8425,0,0,1-1.0033-.626,2.5225,2.5225,0,0,0-1.8211-.6345,13.2193,13.2193,0,0,0-3.036.472,2.4705,2.4705,0,0,0-1.4156,1.2073c-.3871.6148-.2376.9286.4644,1.1943a6.5314,6.5314,0,0,0,2.7961.411,2.59,2.59,0,0,1,2.6934,1.5224,7.4459,7.4459,0,0,0,3.1677,2.9019c.1822.0991.4331.2676.6646.0742a.65.65,0,0,0,.1372-.6682,2.8727,2.8727,0,0,0-.5475-1.3013A3.0968,3.0968,0,0,1,147.347,546.914Zm-6.8171.7426a3.664,3.664,0,0,0-.73.0491c-.3545.114-.8419.0886-.8568.6488-.0155.5883.5172.4913.81.5291a2.492,2.492,0,0,1,1.8094.8335c.31.3935.6413.77.952,1.1628.186.2352.3643.4749.7127.3488a.7335.7335,0,0,0,.4684-.678,1.6868,1.6868,0,0,0-.1675-1.0006A3.6011,3.6011,0,0,0,140.53,547.6566Zm5.8938,21.7236c-.6725-.088-1.1828-.1558-1.6933-.2212a10.4685,10.4685,0,0,1-1.568-.5.4626.4626,0,0,0-.605.2258.345.345,0,0,0,.1226.474A3.6828,3.6828,0,0,0,146.4237,569.38Zm10.7577-20.5813c-.2487-.0086-.4926.02-.5758.2992-.0757.254.12.376.3031.49.4467.2766.8856.5667,1.3415.8273.3472.1984.4842.0449.4537-.3243A1.4483,1.4483,0,0,0,157.1814,548.7989ZM138.29,547.6a2.0538,2.0538,0,0,0-1.13-1.4384c-.1723-.0787-.3629-.1294-.5122.0313a.3941.3941,0,0,0-.0081.5131c.3017.4286.62.8465.9469,1.2561a.3691.3691,0,0,0,.4938.1137C138.2343,547.991,138.2929,547.85,138.29,547.6Zm11.59-1.3612c-.118-.3032-.0418-.8279-.5106-1.0438-.2122-.0977-.96.8952-.8882,1.1949.1212.5041.5871.4262.9518.48C149.8312,546.9283,149.9366,546.6867,149.88,546.2383Zm-2.0135,24.1468c.4123-.0935,1.0667.0427,1.1345-.5224.05-.4209-.5148-.6658-.93-.6706-.5215-.006-.7755.4466-.8241.8909C147.2032,570.4837,147.6132,570.3244,147.8669,570.3851Z"/><path class="cls-8" d="M128.7862,545.2953a3.98,3.98,0,0,1,1.3285-.1642c1.2611,0,1.2235.0061,1.5583,1.2222.2633.9558,1.1286,1.3648,1.9237,1.7678a5.8885,5.8885,0,0,1,1.2611.7991c.1842.1618.3642.47.6513.169a.6286.6286,0,0,0,.094-.8.8485.8485,0,0,0-.8487-.461c-.2831.0091-.6111.0607-.7184-.3227-.0934-.3342.12-.5481.3329-.7525.3113-.2983.6673-.6333,1.1089-.4486a1.7391,1.7391,0,0,1,1.0567,1.4874,3.6614,3.6614,0,0,0,1.39,2.6364c.5329.454.9649.6051,1.4944.0509.1931-.2022.4234-.4879.734-.3412s.1964.51.2286.7907a1.7037,1.7037,0,0,1-.78,1.5536c-.3042.251-.69.4767-.4607.964.2432.5166.412,1.1467,1.1244,1.1945a1.65,1.65,0,0,1,.9207.3822c.5135.3819.7367.2575.769-.3956.0157-.3164-.002-.6345-.0072-.9518-.0163-.9976.16-1.2,1.1716-1.2393a11.99,11.99,0,0,1,1.9023.0182,4.9136,4.9136,0,0,1,2.9927,1.8646c.5826.6483,1.0286,1.3973,1.9406,1.6475.1536.0421.4024.1073.3539.3521-.0423.2138-.2564.2386-.4436.254a2.614,2.614,0,0,1-1.95-.477c-.2068-.164-.4649-.4587-.75-.1454-.2441.268-.15.5819.0088.8842.1714.3261.505.4591.76.6823.4838.423.4144.8089-.1159,1.0405-1.75.7641-2.3347,2.2422-2.5263,3.9767a1.7389,1.7389,0,0,1-.6069,1.08,2.9973,2.9973,0,0,0-.8723,3.1751,1.4465,1.4465,0,0,1,.0542.39c-.0021.2811.0926.6363-.2688.751a.6638.6638,0,0,1-.8051-.3638c-.5159-1.1281-1.41-1.1-2.4055-.8742a2.4684,2.4684,0,0,1-1.55-.1817.91.91,0,0,0-1.2661.4549,7.0049,7.0049,0,0,0-.6549,1.1712,2.7452,2.7452,0,0,0,1.5461,2.521c.2579.0508.4557-.1165.6574-.23.3217-.181.614-.4161.941-.5853.7183-.3717,1.2051-.1244,1.2688.6463a.832.832,0,0,0,.5527.79,1.8751,1.8751,0,0,1,1.1512,1.4091,1.8217,1.8217,0,0,0,2.849,1.1519,17.1262,17.1262,0,0,1,3.57-1.8638,3.5606,3.5606,0,0,1,2.764.2052,2.2209,2.2209,0,0,0,1.3782.257c1.1246-.1483,2.1714.3921,3.2946.3464a2.1667,2.1667,0,0,0,1.5753-.5884,2.81,2.81,0,0,1,2.5206-.8545,21.503,21.503,0,0,1-11.6138,11.0678,3.7563,3.7563,0,0,1-1.3421.4389,2.002,2.002,0,0,0-1.7242-1.8732c-.7833-.2038-1.5053-.618-2.3107-.8069-.6989-.164-.7531-.68-.4384-1.2339a8.6639,8.6639,0,0,0,.8463-2.7839.8172.8172,0,0,0-.614-1.0752,33.11,33.11,0,0,1-5.3693-2.493,3.8221,3.8221,0,0,0-1.4837-.4882,7.0053,7.0053,0,0,1-3.0843-1.3667c-.4769-.3368-.257-.87-.3188-1.3242-.053-.39.1178-1.1119-.69-.511-.1776.1322-.3573.0129-.5131-.0864-1.35-.86-2.5624-1.7941-2.4535-3.6572a2.9621,2.9621,0,0,0-.6647-1.7506,4.8916,4.8916,0,0,1-.8042-1.62,1.2829,1.2829,0,0,1,.1155-1.06c.8339-1.2319.7536-2.6822.8543-4.0446.0684-.9269-.5447-1.836-.47-2.8475.0732-.9928-.0645-1.9713.814-2.7711.5164-.47-.3016-1.6749-1.2233-1.7673a6.6745,6.6745,0,0,0-2.2885.0616,2.8114,2.8114,0,0,1-1.5492-.1708.588.588,0,0,1-.4357-.5179c-.0186-.2852.2239-.4027.4468-.4873a3.9642,3.9642,0,0,1,.6846-.19,1.63,1.63,0,0,0,1.3491-1.0827,1.0683,1.0683,0,0,1,1.3331-.8115C128.6772,546.2141,128.8152,545.8232,128.7862,545.2953Z"/><path class="cls-8" d="M156.7372,544.009c.0436.7612.0987,1.522.1258,2.2838a1.66,1.66,0,0,0,.4432.9078c.206.2878.3173.5558.0475.85a.6449.6449,0,0,1-.9227.145,2.64,2.64,0,0,0-1.9308-.7339c-.2594.0131-.446-.2685-.6095-.4728a1.3584,1.3584,0,0,0-1.0733-.58c-.29-.0046-.5676-.1158-.6167-.3977-.0678-.3894.3188-.4392.5714-.5307.4476-.1623.9467-.2056.7385-.9265-.3246-1.1238-.98-1.9167-1.6183-1.7493-2.7385.7178-4.5376-.6871-6.0527-2.6719-1.0563-1.3838-2.2411-1.599-3.6439-.55a1.0617,1.0617,0,0,1-.7217.2871,10.3225,10.3225,0,0,1-3.4856-.5258,2.3667,2.3667,0,0,0-2.9073.2552,13.4934,13.4934,0,0,1-2.8306,1.5643,2.876,2.876,0,0,0-1.598,1.7552,4.28,4.28,0,0,1-1.4614,1.833c-.1744.1573-.4125.25-.4137.535-.3391.0894-.6345.1482-.74-.3411a.7006.7006,0,0,0-.6556-.6006,1.6721,1.6721,0,0,1-1.3618-.8325,1.7575,1.7575,0,0,0-1.3151-.608c-.2044-.0377-.4623-.035-.4584-.32.003-.2177.2185-.2694.3978-.3222a5.8447,5.8447,0,0,1,1.7839-.29c.2712.006.5282.0117.6651-.2961a.6.6,0,0,0-.1922-.7118c-.2785-.2719-.4942-.6259-.893-.7584a3.0873,3.0873,0,0,1,1.2569-.787,24.6528,24.6528,0,0,1,13.6813-2.4009,26.1246,26.1246,0,0,1,13.6759,5.0908A13.5413,13.5413,0,0,1,156.7372,544.009Z"/><path class="cls-8" d="M163.1989,561.6222a4.3192,4.3192,0,0,1-2.1714-3.1124c-.2357-1.2353-.4635-2.4745-.6233-3.7212a2.6833,2.6833,0,0,0-.8123-1.6575,1.2322,1.2322,0,0,1-.2613-1.6879,4.5648,4.5648,0,0,0,.3525-2.9243c-.0366-.2858-.0686-.5722-.1027-.8583a21.2716,21.2716,0,0,1,3.485,9.8555A22.7542,22.7542,0,0,1,163.1989,561.6222Z"/><path class="cls-8" d="M147.347,546.914a3.0968,3.0968,0,0,0,.7151,2.3064,2.8727,2.8727,0,0,1,.5475,1.3013.65.65,0,0,1-.1372.6682c-.2315.1934-.4824.0249-.6646-.0742a7.4459,7.4459,0,0,1-3.1677-2.9019,2.59,2.59,0,0,0-2.6934-1.5224,6.5314,6.5314,0,0,1-2.7961-.411c-.702-.2657-.8515-.5795-.4644-1.1943a2.4705,2.4705,0,0,1,1.4156-1.2073,13.2193,13.2193,0,0,1,3.036-.472,2.5225,2.5225,0,0,1,1.8211.6345,3.8425,3.8425,0,0,0,1.0033.626C147.3559,545.2959,147.3605,545.2857,147.347,546.914Z"/><path class="cls-8" d="M140.53,547.6566a3.6011,3.6011,0,0,1,2.9977,1.8935,1.6868,1.6868,0,0,1,.1675,1.0006.7335.7335,0,0,1-.4684.678c-.3484.1261-.5267-.1136-.7127-.3488-.3107-.3929-.6422-.7693-.952-1.1628a2.492,2.492,0,0,0-1.8094-.8335c-.2924-.0378-.8251.0592-.81-.5291.0149-.56.5023-.5348.8568-.6488A3.664,3.664,0,0,1,140.53,547.6566Z"/><path class="cls-8" d="M146.4237,569.38a3.6828,3.6828,0,0,1-3.7437-.0215.345.345,0,0,1-.1226-.474.4626.4626,0,0,1,.605-.2258,10.4685,10.4685,0,0,0,1.568.5C145.2409,569.2244,145.7512,569.2922,146.4237,569.38Z"/><path class="cls-8" d="M157.1815,548.7992a1.4478,1.4478,0,0,1,1.5224,1.2915c.03.3692-.1065.5227-.4537.3243-.4559-.2606-.8948-.5507-1.3415-.8273-.1834-.1136-.3788-.2356-.3031-.49C156.6888,548.8189,156.9327,548.79,157.1815,548.7992Z"/><path class="cls-8" d="M138.29,547.6c.0029.25-.0557.3915-.2093.4758a.3691.3691,0,0,1-.4938-.1137c-.3272-.41-.6452-.8275-.9469-1.2561a.3941.3941,0,0,1,.0081-.5131c.1493-.1607.34-.11.5122-.0313A2.0538,2.0538,0,0,1,138.29,547.6Z"/><path class="cls-8" d="M149.88,546.2383c.0562.4484-.0492.69-.447.6312-.3647-.0539-.8306.024-.9518-.48-.0721-.3.676-1.2926.8882-1.1949C149.8386,545.41,149.7624,545.9351,149.88,546.2383Z"/><path class="cls-8" d="M147.8669,570.3851c-.2537-.0607-.6637.0986-.62-.3021.0486-.4443.3026-.8969.8241-.8909.4155.0048.9807.25.93.6706C148.9336,570.4278,148.2792,570.2916,147.8669,570.3851Z"/><path class="cls-7" d="M259.8764,584.0417c1.21.2419.7057,1.2157.7071,1.862q.045,21.4292.0236,42.8584a5.59,5.59,0,0,0,.0031.6564c.1.84-.2273,1.2165-1.1022,1.1338-.5423-.0512-1.0938-.0043-1.6411-.0043q-102.5484,0-205.0968-.0058c-2.5119,0-2.1481.3148-2.1505-2.1861q-.02-21.0187-.0048-42.0374c0-.71.04-1.42.0612-2.13a.2719.2719,0,0,0,.23-.1516q.3718,0,.7427,0c.6485.05,1.2979.1408,1.9473.1412q21.84.0143,43.68-.0141a2.4844,2.4844,0,0,1,2.5212,1.3431,32.2568,32.2568,0,0,0,4.6755,6.31c11.3076,12.0049,25.18,17.2679,41.5526,15.0139,13.986-1.9253,24.8524-9.1219,32.617-20.9018a3.3757,3.3757,0,0,1,3.2561-1.7809q37.9325.0765,75.8652.0312C258.4675,584.18,259.1719,584.09,259.8764,584.0417Z"/><path class="cls-7" d="M50.6827,536.9244c-.0232-.3266-.0666-.6532-.0667-.98q-.005-21.9207-.0292-43.8415c-.0033-1.1971.2616-1.5644,1.5245-1.5638q103.4466.05,206.8931.0019c1.2991-.0006,1.6356.3465,1.6316,1.633q-.0677,21.5924-.0142,43.1848c.0015,1.0414-.0465,1.8724-1.4062,1.72-.7034-.0493-1.4076-.1406-2.1119-.1408q-37.7607-.0107-75.5215.0267a2.9617,2.9617,0,0,1-2.8973-1.58A44.3064,44.3064,0,0,0,163.3524,520.42,46.7659,46.7659,0,0,0,99.58,535.7958a2.181,2.181,0,0,1-2.1068,1.1557Q74.0779,536.901,50.6827,536.9244Z"/><path class="cls-8" d="M50.6827,536.9244q23.3952.0022,46.79.0271a2.181,2.181,0,0,0,2.1068-1.1557A46.7659,46.7659,0,0,1,163.3524,520.42a44.3064,44.3064,0,0,1,15.3325,14.9656,2.9617,2.9617,0,0,0,2.8973,1.58q37.7607-.0665,75.5215-.0267c.7043,0,1.4085.0915,2.1119.1408a3.98,3.98,0,0,1-1.9374.1615q-37.6847.0138-75.3691.0232c-.5539,0-1.3352-.3574-1.6306.2979-.2191.4861.3953.952.6346,1.4308.5122,1.0247.9372,2.0929,1.4478,3.1185.3755.7543-.1159.9789-.6432,1.1938q-9.7422,3.9713-19.4887,7.9319c-.9432.3832-1.4661.0221-1.9263-.88-3.7649-7.38-9.8224-11.8176-17.96-12.9519a22.4883,22.4883,0,0,0-18.1367,5.2764c-4.2921,3.6054-7.3237,8.16-8.0452,13.67-1.229,9.3873,1.3561,17.5,9.4114,23.3005a23.3231,23.3231,0,0,0,28.9116-1.1637,24.1633,24.1633,0,0,0,5.8907-7.8691c.574-1.1409,1.1555-1.1776,2.1679-.7625q9.612,3.9409,19.2515,7.8146c.8525.3423.88.767.507,1.491-.6474,1.2574-1.1943,2.5671-1.8549,3.8169-.3429.6487-.2446.899.484.8933.4378-.0034.8757.0014,1.3136.0014q37.9308,0,75.8617.0075a3.4646,3.4646,0,0,1,1.772.1606c-.7052.0478-1.41.138-2.1141.1382q-37.9326.01-75.8652-.0312a3.3757,3.3757,0,0,0-3.2561,1.7809c-7.7646,11.78-18.631,18.9765-32.617,20.9018-16.3727,2.254-30.245-3.009-41.5526-15.0139a32.2568,32.2568,0,0,1-4.6755-6.31,2.4844,2.4844,0,0,0-2.5212-1.3431q-21.84.0539-43.68.0141c-.6494,0-1.2988-.0917-1.9473-.1412a5.2735,5.2735,0,0,1,2.2665-.158q21.4278-.0181,42.8556-.0087c1.8334,0,1.8139.0052.999-1.6174a67.6447,67.6447,0,0,1-3.61-9.1232,40.8532,40.8532,0,0,1-1.6855-15.8076,45.7356,45.7356,0,0,1,5.1833-18.2809,3.0507,3.0507,0,0,0,.641-1.7963H96.7011q-22.1667,0-44.3333-.014C51.8056,537.2311,51.1547,537.5028,50.6827,536.9244Z"/><path class="cls-7" d="M402.497,610.0668c0,1.4014-.0383,2.8043.0141,4.2037.0322.86-.2825,1.1518-1.136,1.1327-2.0793-.0466-4.1624-.0759-6.24.0022-1.1384.0428-1.5045-.305-1.4923-1.471.0568-5.4193.025-10.8394.0253-16.2592.0007-10.2375.0274-20.475-.0282-30.7121-.0074-1.3757.2117-1.976,1.7636-1.8462a45.0976,45.0976,0,0,0,5.7441.0161c1.0813-.048,1.3831.2926,1.3745,1.3669-.0481,6.0209-.0232,12.0424-.0232,18.0645.1392.0125.2924.0643.3232.0236,4.22-5.5769,9.9881-6.5866,16.3146-5.1489,6.7182,1.5266,10.51,6.1645,12.0243,12.71a21.879,21.879,0,0,1-1.7114,15.313c-4.752,9.3376-19.8816,11.4606-26.2959,2.9136-.0981-.1307-.2043-.2553-.3067-.3828Zm-.0033-13.894c.0156,6.4655,3.0227,10.6617,7.7372,11.6944,4.8047,1.0524,9.2935-.9446,11.3571-5.0527,2.3885-4.7549,1.4047-11.0434-2.3356-14.1665a10.215,10.215,0,0,0-16.7587,7.5248Z"/><path class="cls-7" d="M698.2118,609.8361c-6.7585,8.8076-19.2438,6.7194-24.4571,1.03a17.363,17.363,0,0,1-4.7061-10.1535c-.6145-5.9567.0768-11.4922,4.0393-16.38,5.6443-6.9619,19.2727-7.7545,24.6674.0981.0494.0717.1685.0953.4579.2494,0-2.1568.0006-4.2051,0-6.2534-.0012-3.9959.0264-7.9923-.0253-11.9875-.0128-.9843.228-1.3479,1.272-1.307,2.0769.0814,4.1612.0779,6.2385.0027,1.0619-.0384,1.4094.2706,1.3853,1.3643-.0712,3.2281-.0289,6.4587-.029,9.6883,0,12.48-.0285,24.9611.0371,37.4412.0078,1.4908-.4177,1.8737-1.8384,1.7849-1.9629-.1228-3.94-.0589-5.91-.0158-.8391.0184-1.1837-.2456-1.1471-1.1229C698.2538,612.9109,698.2118,611.5425,698.2118,609.8361Zm-20.5059-12.5933c-.0505,6.9652,4.514,11.329,10.5987,11.1762a9.7941,9.7941,0,0,0,9.4088-7.3312c1.42-4.7834-.0722-10.2264-3.6428-12.7633a10.1075,10.1075,0,0,0-10.8729-.8028C679.2866,589.4581,677.7616,593,677.7059,597.2428Z"/><path class="cls-7" d="M522.04,547.8c-5.949,7.5213-14.4482,7.4639-21.3276,3.7186-4.3459-2.3661-6.7213-6.5763-7.6614-11.5014-1.087-5.6945-.5414-11.1042,2.6867-16.0636,5.758-8.846,20.2943-9.4376,25.8561-1.28.0507.0744.1726.1.4478.25,0-3.0243,0-5.9465,0-8.8687,0-3.0661.07-6.1345-.0318-9.1973-.0445-1.3451.4267-1.68,1.6757-1.61a38.2793,38.2793,0,0,0,5.0883-.0053c1.5493-.12,2.0409.325,2.0337,1.96-.066,15.0565-.039,30.1133-.0388,45.17,0,3.0861,0,3.086-3.1412,3.082-1.3141-.0017-2.6332-.0764-3.9406.0162-1.24.0878-1.8028-.2432-1.6722-1.6037C522.1346,550.6232,522.04,549.3584,522.04,547.8Zm-10.392-1.327c6.0135.0255,10.3512-4.4486,10.3831-10.71.0337-6.6064-4.14-11.26-10.1676-11.3364-5.9777-.0757-10.416,4.5459-10.446,10.8773C501.3866,541.9433,505.5119,546.447,511.6485,546.4731Z"/><path class="cls-7" d="M298.7532,505.9169c8.4.0053,14.1575,2.2539,19.1765,6.56.9252.7938.8328,1.2829.1494,2.0895-1.2369,1.46-2.4694,2.9345-3.5635,4.5009-.6954.9955-1.0965.8058-1.843.0731a16.7506,16.7506,0,0,0-12.0072-5.2189,15.7307,15.7307,0,0,0-15.7532,14.5636,15.5569,15.5569,0,0,0,13.9788,16.7009c5.19.5833,9.69-1.1575,13.63-4.43.8914-.74,1.386-.9027,2.1709.11a48.7278,48.7278,0,0,0,3.502,3.91c.6763.7011.7,1.1749-.0526,1.8674a26.1961,26.1961,0,0,1-14.23,6.9451,24.3344,24.3344,0,0,1-20.5264-6.0713,23.0157,23.0157,0,0,1-7.2987-13.0818c-1.756-9.0159,1.0049-16.5774,7.8216-22.591A23.46,23.46,0,0,1,298.7532,505.9169Z"/><path class="cls-7" d="M302.46,615.7716c-14.8714-.1225-24.4909-8.22-26.496-20.568-1.3966-8.6,1.4531-15.7394,7.8817-21.4814a23.7957,23.7957,0,0,1,12.94-5.6944,25.7,25.7,0,0,1,21.155,6.3412c.8375.7212.94,1.2433.1471,2.1166a57.031,57.031,0,0,0-3.5937,4.4791c-.61.8264-.9732.8433-1.7232.0994a16.5884,16.5884,0,0,0-10.2-5.146c-6.7041-.631-12.1126,1.8164-15.5273,7.6667-3.2976,5.65-2.94,11.4784.665,16.8968,4.6654,7.0124,14.1677,8.8524,21.7293,4.3831a21.6234,21.6234,0,0,0,3.202-2.2784c.7788-.6787,1.2467-.8122,1.96.0861,1.1552,1.4553,2.403,2.8446,3.6955,4.1806.66.6826.5846,1.0709-.0864,1.6724C313.0841,613.1193,307.154,615.6743,302.46,615.7716Z"/><path class="cls-7" d="M347.5753,611.0249a13.5879,13.5879,0,0,1-8.6419,4.5546c-3.461.4617-6.8973.3608-10.0639-1.3677a10.8683,10.8683,0,0,1-5.5522-11.7835c.7066-4.3181,4.224-7.4534,9.3915-8.3426,4.348-.7483,8.736-.3154,13.1052-.3668,1.3608-.016,1.7936-.2868,1.5845-1.7564-.5557-3.9043-3.7321-6.2459-8.19-5.9517a20.1233,20.1233,0,0,0-9.4985,2.7658c-.9657.5985-1.4205.3379-1.8573-.6067-.6188-1.338-1.3167-2.6425-2.041-3.9273-.3579-.635-.3847-.999.3356-1.4155a27.9663,27.9663,0,0,1,20.2307-3.4293c6.1072,1.2711,9.5152,5.42,9.6939,11.7592.2174,7.7106.0852,15.431.1246,23.1471.0038.7422-.1892,1.1015-1.0082,1.0879-2.1885-.0363-4.3782-.0308-6.5668.001-.7695.0111-1.0935-.2577-1.0569-1.047C347.6093,613.3841,347.5753,612.4185,347.5753,611.0249Zm-9.2341-2.0882c.5441-.0348,1.0894-.0569,1.6322-.1064,4.563-.4158,7.6073-3.6223,7.5539-7.848-.0131-1.0379-.26-1.43-1.3816-1.3965-3.0524.0914-6.1094.0233-9.1633.082a9.9211,9.9211,0,0,0-2.57.4065,3.6218,3.6218,0,0,0-2.8612,3.2038,4.4984,4.4984,0,0,0,1.8142,4.4581A7.5808,7.5808,0,0,0,338.3412,608.9367Z"/><path class="cls-7" d="M546.0381,591.6741c.0008-7.3356.0343-14.6716-.03-22.0067-.0115-1.306.3465-1.6413,1.64-1.6339q14.6984.0829,29.3971.0046c1.2755-.0065,1.7524.2945,1.6457,1.6274a34.0455,34.0455,0,0,0-.03,4.7589c.0761,1.2585-.39,1.5681-1.5925,1.559-6.7331-.0509-13.4672.0152-20.2-.0553-1.3936-.0146-1.9127.2612-1.8524,1.78.128,3.2248.073,6.4588.0183,9.6878-.0181,1.0646.303,1.403,1.3979,1.3939,6.1856-.0511,12.3723.0122,18.5576-.0554,1.3051-.0142,1.7165.3543,1.62,1.65a35.4085,35.4085,0,0,0-.0019,4.5953c.0678,1.2138-.1828,1.6992-1.59,1.68-6.13-.084-12.2622.0306-18.3921-.0444-1.3574-.0166-1.6153.4061-1.6,1.6478.0639,5.1451-.0217,10.2922.06,15.4368.0223,1.4056-.4314,1.788-1.7738,1.7118a52.8573,52.8573,0,0,0-5.7451-.0025c-1.2387.0649-1.5664-.3336-1.5569-1.5635C546.0663,606.4551,546.0374,599.0645,546.0381,591.6741Z"/><path class="cls-7" d="M477.3635,549.0525c-4.1236,4.641-9.311,5.16-14.5609,4.8511-5.0667-.2984-9.5067-5.3-9.7664-10.3682-.3039-5.9342,2.6864-9.8463,8.5863-11.1955a26.555,26.555,0,0,1,5.6958-.6419c2.4087-.0216,4.8178-.0021,7.2267-.0057,3.0871-.0047,3.3281-.3614,2.29-3.3672-.8646-2.5042-3.4914-4.1492-6.8061-4.2212a19.1382,19.1382,0,0,0-10.3516,2.6461c-1.0148.6006-1.57.6154-2.072-.5923a38.9783,38.9783,0,0,0-2.0347-3.9308c-.3463-.6221-.223-.9589.3937-1.2958,6.5745-3.5914,13.5132-5.13,20.8671-3.1771,5.8675,1.558,8.9759,5.687,9.07,11.7618.1169,7.5535.0335,15.11.0828,22.6649.0067,1.0208-.3319,1.3185-1.3185,1.288-2.0237-.0625-4.0517-.0532-6.076,0-.9038.0236-1.31-.2339-1.2408-1.1954C477.4156,551.3482,477.3635,550.4151,477.3635,549.0525Zm-9.2141-1.99a10.0233,10.0233,0,0,0,5.4533-1.3632,6.7846,6.7846,0,0,0,3.7185-7.2082c-.0667-.597-.2314-.8978-.8692-.8814-3.8122.0983-7.6393-.2768-11.435.3079a4.12,4.12,0,0,0-3.6637,3.2491,4.64,4.64,0,0,0,2.2111,4.8934A7.8937,7.8937,0,0,0,468.1494,547.0625Z"/><path class="cls-7" d="M436.2,597.2047c-.0993-10.377,7.2245-17.9212,17.6495-18.2741,4.5335-.1535,8.8618.49,12.6936,3.0476,5.6613,3.7781,7.85,9.3132,7.7173,15.924-.137,6.8353-3.0431,12.1966-9.025,15.5226a20.753,20.753,0,0,1-14.6447,1.8678C441.505,613.3975,436.2915,606.7722,436.2,597.2047Zm19.11-10.7155c-6.0339-.0138-10.37,4.4953-10.3115,10.724.0614,6.5927,4.1548,11.0569,10.1644,11.0853,5.8934.0278,10.2805-4.4718,10.3324-10.5975C465.551,591.0955,461.379,586.5031,455.31,586.4892Z"/><path class="cls-7" d="M342.0388,517.083c6.8251.044,12.6773,2.2648,16.2705,8.347,6.5465,11.0811,1.2784,27.805-15.3247,28.3194a21.816,21.816,0,0,1-9.3228-1.4471,16.4976,16.4976,0,0,1-10.508-13.38c-1.1069-7.2394.5286-13.63,6.6772-18.2409A19.1291,19.1291,0,0,1,342.0388,517.083Zm-10.2973,18.3045c.0351,5.5318,2.8586,9.6421,7.365,10.7212a10.2894,10.2894,0,0,0,13.0319-10.9416c-.25-3.943-1.4875-7.4558-5.2273-9.4244C340.4821,522.3587,331.5846,525.9754,331.7415,535.3875Z"/><path class="cls-7" d="M400.113,517.0778c9.1827.0758,15.6346,4.0375,18.2332,10.95,3.488,9.2787.5625,21.21-10.9832,24.794a21.3035,21.3035,0,0,1-17.76-1.8631,16.1266,16.1266,0,0,1-7.67-11.6692c-1.2218-7.5935.4776-14.1764,7.0021-18.8614A18.2648,18.2648,0,0,1,400.113,517.0778Zm10.7112,18.6216c-.118-4.4422-1.4145-8.2857-5.7635-10.225-7.1548-3.19-14.461,1.5286-14.6459,9.4007-.0945,4.0209,1,7.6279,4.583,9.9287a9.9443,9.9443,0,0,0,10.5779.4149C409.3582,543.2138,410.7127,539.77,410.8242,535.6994Z"/><path class="cls-7" d="M557.9933,517.1327c7.7773.0609,13.993,2.925,17.3327,10.31a18.6245,18.6245,0,0,1-7.5253,24.0738c-7.5347,4.2023-18.7873,2.7073-24.2776-3.4587-5.3263-5.9819-6.0881-13.0055-3.26-20.2258,2.76-7.048,8.5914-10.1461,15.9264-10.6931C556.7873,517.094,557.3917,517.1327,557.9933,517.1327Zm-10.3146,18.2838c.0222,3.6127,1.0438,6.8341,4.0579,9.05a10.015,10.015,0,0,0,10.5462,1.0316c3.8422-1.7108,5.5419-5.0126,5.7564-9.0319.2378-4.4591-.9629-8.4637-5.1865-10.7118C556.2142,522.2212,547.5437,526.2543,547.6787,535.4165Z"/><path class="cls-7" d="M635.7931,585.6816c.8437-1.1013,1.376-1.9124,2.0216-2.62,4.9753-5.4549,16.5237-5.7306,21.0748-.2341a12.7224,12.7224,0,0,1,3.1271,7.5959c.3857,7.9327.0776,15.8749.183,23.8123.0134,1.0106-.4721,1.1729-1.31,1.1586-1.9159-.0325-3.8372-.0918-5.7474.0163-1.3389.0758-1.7839-.2992-1.765-1.7053.0782-5.8029.0362-11.6074.0276-17.4113a12.0072,12.0072,0,0,0-.8974-4.9662,6.2156,6.2156,0,0,0-6.2679-3.827c-1.3565.0861-2.7209-.2376-4.0737.196-3.7954,1.2167-6.3245,4.9271-6.3617,9.5741-.0438,5.475-.0575,10.9513.022,16.4255.02,1.3847-.3848,1.7988-1.7445,1.7178-1.91-.1138-3.8322-.0706-5.747-.0147-.97.0283-1.3624-.2606-1.36-1.29q.04-16.8366.0024-33.6733c-.002-.9337.3026-1.2456,1.2306-1.2219,2.1339.0547,4.2714.0627,6.4051.0041.9585-.0263,1.2281.3334,1.1962,1.2379C635.7528,582.0415,635.7931,583.63,635.7931,585.6816Z"/><path class="cls-7" d="M489.0635,585.7421c4.281-6.4077,10.1158-7.7248,16.6932-6.4708,5.2783,1.0064,8.6683,4.9631,9.4314,10.2772a31.4689,31.4689,0,0,1,.3245,4.5806c-.02,6.6254-.0321,13.2511.0169,19.8762.008,1.0774-.2877,1.4418-1.3734,1.4006-1.9684-.0746-3.9448-.09-5.9118.0006-1.2589.0583-1.6753-.2717-1.6566-1.6251.0832-6.0219.0572-12.0459.0226-18.0688-.0146-2.5221-.4957-4.9193-2.5524-6.6708a5.534,5.534,0,0,0-4.3405-1.5551c-1.3547.1572-2.733-.2472-4.0809.1374a9.074,9.074,0,0,0-6.4019,8.1147c-.4034,5.8488-.1432,11.7121-.1272,17.568.0044,1.6216-.3548,2.2686-2.081,2.118a51.92,51.92,0,0,0-5.5817-.0345c-.8337.0174-1.1506-.24-1.1488-1.1194q.0346-16.9194-.0028-33.8391c-.0022-.931.2905-1.2429,1.2173-1.2181,2.0793.0557,4.1622.0635,6.2412.0064.9945-.0273,1.3689.3011,1.3285,1.31C489.0172,582.1032,489.0635,583.68,489.0635,585.7421Z"/><path class="cls-7" d="M609.7552,609.2954a14.0438,14.0438,0,0,1-8.2163,5.9025c-6.263,1.477-12.8871.064-15.8908-5.8979a13.3923,13.3923,0,0,1-1.54-5.9816c-.0426-7.6068-.0286-15.2141-.0811-22.8209-.0071-1.0375.38-1.3091,1.3459-1.2822,1.9691.0548,3.9443.0826,5.91-.0122,1.2417-.06,1.59.3722,1.5784,1.5866-.0551,5.6379-.0473,11.2768-.0086,16.9151a18.0526,18.0526,0,0,0,.3671,4.2361c1.3784,5.4909,8.8714,7.348,13.1508,3.3468a10.8554,10.8554,0,0,0,3.37-8.2539q.0659-8.1287-.0124-16.2581c-.0136-1.2064.2842-1.6346,1.544-1.57,2.0748.1059,4.16.0566,6.2388.0146.8506-.0171,1.135.28,1.1334,1.1367q-.0316,16.9155.0048,33.8309c.0023.95-.3288,1.2326-1.2372,1.2122-2.1339-.0479-4.2712-.0664-6.4038.0028-1.0528.0341-1.3061-.3891-1.27-1.3468C609.7988,612.471,609.7552,610.8824,609.7552,609.2954Z"/><path class="cls-7" d="M375.64,528.5274c.0024,7.6651-.0472,15.3309.0421,22.995.0189,1.63-.4756,2.0778-2.03,1.9585a42.2077,42.2077,0,0,0-5.2527-.0079c-1.1356.0548-1.52-.2966-1.5-1.4643.0662-3.7767.0264-7.5552.0264-11.333,0-11.881.0289-23.7622-.0378-35.6428-.0084-1.4966.4418-1.8864,1.85-1.7895a37.256,37.256,0,0,0,5.0881.0008c1.4125-.0967,1.8635.3045,1.8483,1.7953C375.5953,512.8681,375.6377,520.698,375.64,528.5274Z"/><path class="cls-7" d="M374.8938,585.5124c2.7145-4.0049,6.224-6.2671,10.958-6.6.9965-.07,1.3707.1968,1.336,1.2325-.0659,1.9665-.0573,3.9377-.0075,5.9051.023.9045-.2819,1.2451-1.2024,1.2937a13.13,13.13,0,0,0-5.7006,1.2621,9.6094,9.6094,0,0,0-5.3664,8.9155c-.0733,5.4677-.0486,10.9374.0051,16.4056.0111,1.1269-.2739,1.535-1.45,1.4812-2.0191-.0924-4.0463-.0551-6.0687-.0107-.939.0206-1.371-.2184-1.3681-1.2767q.0471-16.8161.0065-33.6323c-.0016-.8774.2-1.2943,1.1768-1.27,2.186.0543,4.376.0627,6.5612-.0079,1.0242-.0331,1.156.4375,1.1333,1.2792C374.8619,582.1627,374.8938,583.838,374.8938,585.5124Z"/><path class="cls-7" d="M436.2308,523.4863a14.3414,14.3414,0,0,1,10.9516-6.4594c1.2625-.1048,1.3488.3063,1.3261,1.2815-.0431,1.8594-.087,3.7245.0128,5.58.0649,1.2046-.2651,1.58-1.5222,1.5715a10.3976,10.3976,0,0,0-9.0621,4.3806,10.6412,10.6412,0,0,0-1.7867,6.3649c-.0111,5.1982-.0362,10.3969.0259,15.5944.0151,1.2618-.3137,1.7524-1.644,1.68-1.9641-.107-3.9393-.0669-5.9076-.0132-.9231.0251-1.2259-.281-1.2237-1.215q.0395-16.9078.002-33.8158c-.002-.9247.2762-1.2427,1.2134-1.2172,2.1324.0581,4.2684.0546,6.4011.0011.9486-.0238,1.2479.35,1.2254,1.2489C436.2011,520.14,436.2308,521.8135,436.2308,523.4863Z"/><path class="cls-5" d="M50.9055,584.0376a.2719.2719,0,0,1-.23.1516C50.68,584.0276,50.7306,583.9382,50.9055,584.0376Z"/><circle class="cls-9" cx="139.6573" cy="560.871" r="23.7438"/></svg>