<svg xmlns="http://www.w3.org/2000/svg" viewBox="0 0 2000 3365.6007"><defs><style>.cls-1,.cls-4,.cls-6{fill:#e6e6e6;}.cls-1,.cls-3,.cls-5,.cls-6,.cls-7,.cls-8{stroke:#000;stroke-linejoin:round;}.cls-1,.cls-5,.cls-6,.cls-7,.cls-8{stroke-width:8px;}.cls-2{fill:#fff;}.cls-3,.cls-5,.cls-7{fill:none;}.cls-3{stroke-width:3px;}.cls-6,.cls-7,.cls-8{stroke-linecap:round;}.cls-8{fill:#ccc;}</style></defs><title>nRichDX_illustrations</title><g id="Layer_2" data-name="Layer 2"><polygon class="cls-1" points="860 3045.601 860 3185.601 960 3225.601 1080 3225.601 1180 3185.601 1180 3045.601 860 3045.601"/><path class="cls-1" d="M1200,1945.6007v1100c-67.1751,67.1752-292.8249,67.1752-360,0v-1100Z"/><polygon class="cls-1" points="1260.795 1945.601 1112.614 1885.601 927.386 1885.601 779.205 1945.601 779.205 1745.601 927.386 1685.601 1112.614 1685.601 1260.795 1745.601 1260.795 1945.601"/><path class="cls-2" d="M840,1737.871v-52.27l120-320h120l120,320v52.27C1136.36,1801.5106,903.64,1801.5106,840,1737.871Z"/><path class="cls-3" d="M840,1737.871v-52.27l120-320h120l120,320v52.27C1136.36,1801.5106,903.64,1801.5106,840,1737.871Z"/><path class="cls-4" d="M840,1737.871v-52.27l120-320h120l120,320v52.27C1136.36,1801.5106,903.64,1801.5106,840,1737.871Z"/><path class="cls-5" d="M840,1737.871v-52.27l120-320h120l120,320v52.27C1136.36,1801.5106,903.64,1801.5106,840,1737.871Z"/><path class="cls-1" d="M1120,1365.6007c-20-20-180-20-200,0v-80c40-40,160-40,200,0Z"/><path class="cls-2" d="M886.0819,1685.6007l89.9728-294.2187,9.8944,1.7316-65.7056,310.6211v67.3142c-21.52-5.0967-34.1616-10.2878-34.1616-10.2878Z"/><path class="cls-2" d="M940,3084.8156a317.5374,317.5374,0,0,1-40-10.0819V1993.2993h40Z"/><polygon class="cls-1" points="779.205 1745.601 927.386 1805.601 1112.614 1805.601 1260.795 1745.601 1260.795 1945.601 1112.614 2005.601 927.386 2005.601 779.205 1945.601 779.205 1745.601"/><path class="cls-2" d="M917,3087.9868s19.1522,4.8983,40,7.7713V3220.08l-40-16.0052Z"/><polygon class="cls-2" points="833.244 1771.826 873.244 1788.011 874.244 1979.796 834.24 1963.582 833.244 1771.826"/><path class="cls-1" d="M969.6426,1261.2322c96.6713-5.6315,141.1945,43.63,141.1945,43.63"/><path class="cls-1" d="M933.6653,1296.6841c88.12-24.209,140.3427,21.2212,140.3427,21.2212"/><path class="cls-1" d="M920,1285.6007c40,40,160,40,200,0v80c-40,40-160,40-200,0Z"/><path class="cls-2" d="M952.215,1309.0446a169.9153,169.9153,0,0,0,27.1789,7.0063v71.8654c-11.8666-1.7994-26.2149-7.07-26.2149-7.07Z"/><path class="cls-1" d="M960,1029.6562V591.8551c7.0987-16.5713,41.9722-40,60-40s52.9013,23.4287,60,40v437.8011C1060,1049.6562,980,1049.6562,960,1029.6562Z"/><ellipse class="cls-1" cx="1019.755" cy="902.3564" rx="91.6504" ry="36.1632"/><path class="cls-1" d="M960,903.5908V465.79c7.0987-16.5713,41.9722-40,60-40s52.9013,23.4287,60,40V903.5908C1060,923.5908,980,923.5908,960,903.5908Z"/><path class="cls-2" d="M979.5032,474.44,1020,431.038l-17.3841,48.715.5779,433.0052a111.8666,111.8666,0,0,1-23.1159-4.161Z"/><path class="cls-6" d="M1086,938.52c-60.245,34.5627-134,22.5157-134,22.5157"/><path class="cls-6" d="M1086,965.7693c-64.1837,35.2209-134,25.3532-134,25.3532"/><path class="cls-6" d="M1086,993.8566c-50.4295,36.4235-134,25.3532-134,25.3532"/><path class="cls-7" d="M1160.8554,829.738c55.2063,16.7257,90.7939,43.0322,90.7939,72.6184,0,29.0626-34.3393,54.9606-87.8816,71.7215"/><path class="cls-7" d="M872.5521,973.061c-51.7123-16.7815-84.6914-42.2234-84.6914-70.7046,0-28.291,32.54-53.5832,83.6579-70.3673"/><polyline class="cls-7" points="861.337 934.719 880.085 975.382 838.261 992.395"/><polyline class="cls-7" points="1174.102 863.72 1155.098 827.93 1194.491 810.212"/><polyline class="cls-7" points="790.016 468.135 829.909 425.79 872.255 468.135"/></g><g id="Layer_3" data-name="Layer 3"><line class="cls-8" x1="829.9092" y1="425.7897" x2="829.9092" y2="637.4243"/></g></svg>