<?xml version="1.0" encoding="utf-8"?>
<!-- Generator: Adobe Illustrator 23.0.4, SVG Export Plug-In . SVG Version: 6.00 Build 0)  -->
<svg version="1.1" id="Layer_1" xmlns="http://www.w3.org/2000/svg" xmlns:xlink="http://www.w3.org/1999/xlink" x="0px" y="0px"
	 viewBox="0 0 2759.5 3221.3" style="enable-background:new 0 0 2759.5 3221.3;" xml:space="preserve">
<style type="text/css">
	.st0{fill:#999999;}
	.st1{fill:#E6E6E6;}
	.st2{fill:none;stroke:#000000;stroke-width:8;stroke-linecap:round;stroke-linejoin:round;}
	.st3{fill:#999999;stroke:#000000;stroke-width:8;stroke-linecap:round;stroke-linejoin:round;}
	.st4{fill:#F2F2F2;stroke:#000000;stroke-width:8;stroke-linecap:round;stroke-linejoin:round;}
	.st5{fill:#FFFFFF;}
	.st6{fill:#B3B3B3;stroke:#000000;stroke-width:8;stroke-linecap:round;stroke-linejoin:round;}
	.st7{fill:#E6E6E6;stroke:#000000;stroke-width:8;stroke-linecap:round;stroke-linejoin:round;}
</style>
<title>nRichDX_illustrations</title>
<g id="Layer_5">
	<polygon class="st0" points="1891.9,377.1 2282.6,2057.1 2162.6,2057.1 1802.6,377.1 	"/>
	<polygon class="st0" points="2282.6,2057.1 2242.6,2937.1 522.6,2937.1 482.6,2057.1 602.6,2057.1 642.6,2817.1 2122.6,2817.1 
		2162.6,2057.1 	"/>
	<polygon class="st1" points="1802.6,377.1 2162.6,2057.1 2122.6,2817.1 642.6,2817.1 602.6,2057.1 962.6,377.1 	"/>
	<polygon class="st0" points="962.6,377.1 602.6,2057.1 482.6,2057.1 873.3,377.1 	"/>
	<polyline class="st2" points="962.6,377.1 873.3,377.1 482.6,2057.1 522.6,2937.1 2242.6,2937.1 2282.6,2057.1 1891.9,377.1 
		1802.6,377.1 	"/>
	<polygon class="st2" points="602.6,2057.1 642.6,2817.1 2122.6,2817.1 2162.6,2057.1 1802.6,377.1 962.6,377.1 	"/>
	<line class="st2" x1="2162.6" y1="2057.1" x2="2282.6" y2="2057.1"/>
	<line class="st2" x1="482.6" y1="2057.1" x2="602.6" y2="2057.1"/>
	<polygon class="st3" points="873.3,377.1 1891.9,377.1 1842.6,337.1 922.6,337.1 	"/>
	<polygon class="st4" points="642.6,2817.1 922.6,1817.1 1842.6,1817.1 2122.6,2817.1 	"/>
	<polygon class="st4" points="922.6,1817.1 962.6,377.1 1802.6,377.1 1842.6,1817.1 	"/>
	<polygon class="st5" points="1588.7,384.1 955.9,830.6 951.9,957.9 1734.8,383.5 	"/>
	<polygon class="st5" points="1761.1,553.6 955.9,1121.8 951.9,1249.1 1803.8,624.1 1801.6,553.6 	"/>
	<polygon class="st3" points="958.4,548.3 1806.9,548.3 1805.7,488.5 959.5,488.5 	"/>
	<path class="st6" d="M1322.6,2417.1l21.9-1880c0-39.3,73.7-39.5,73.7,0l24.4,1880H1322.6z"/>
	<polygon class="st3" points="621.5,2417.1 2143.7,2417.1 2137.3,2537.1 627.9,2537.1 	"/>
	<polygon class="st7" points="2162.6,2537.1 2162.6,3017.1 602.6,3025.1 602.6,2537.1 	"/>
	<path class="st7" d="M736.6,2577.1h1292c51.9,0,94,42.1,94,94v172c0,51.9-42.1,94-94,94h-1292c-51.9,0-94-42.1-94-94v-172
		C642.6,2619.2,684.7,2577.1,736.6,2577.1z"/>
	<rect x="1242.6" y="2617.1" class="st3" width="600" height="120"/>
	<polygon class="st3" points="1266.6,2897.1 1314.6,2817.1 1362.6,2897.1 	"/>
	<polygon class="st3" points="1482.6,2817.1 1434.6,2897.1 1386.6,2817.1 	"/>
	<polygon class="st3" points="1602.6,2897.1 1650.6,2817.1 1698.6,2897.1 	"/>
	<polygon class="st3" points="1818.6,2817.1 1770.6,2897.1 1722.6,2817.1 	"/>
	<circle class="st3" cx="1962.6" cy="2857.1" r="40"/>
	<path class="st3" d="M1122.6,819.2l-80,1245.5h680l-80-1245.5H1122.6z M1119.6,1742.6c-9.7,0.1-17.7-7.7-17.8-17.4
		c0-0.5,0-0.9,0-1.4c0.7-10.4,9.3-18.6,19.7-18.7c9.7-0.1,17.7,7.7,17.8,17.4c0,0.4,0,0.8,0,1.3
		C1138.7,1734.3,1130.1,1742.5,1119.6,1742.6L1119.6,1742.6z M1134.7,1457.6c-9.8,0-17.3-7.5-16.8-16.7c0.5-9.2,8.8-16.6,18.5-16.6
		s17.2,7.4,16.8,16.6C1152.8,1450,1144.5,1457.6,1134.7,1457.6z M1148.2,1203.4c-9.2,0-16.4-6.7-15.9-15c0.5-8.2,8.3-14.9,17.5-14.9
		s16.3,6.6,15.9,14.9C1165.2,1196.7,1157.4,1203.4,1148.2,1203.4L1148.2,1203.4z M1160.2,975.4c-8.8,0-15.5-6-15.1-13.5
		c0.4-7.4,7.8-13.4,16.5-13.4s15.5,6,15.1,13.4C1176.4,969.3,1169,975.4,1160.2,975.4L1160.2,975.4z M1250.1,1780.7
		c-39.9,0.3-72.4-31.8-72.6-71.7c0-1.3,0-2.6,0.1-3.9c1.7-40.8,35.9-73.4,76.5-73.4c39.9-0.2,72.4,32,72.6,71.9c0,0.5,0,1,0,1.5
		C1326.2,1746.6,1291.9,1780.7,1250.1,1780.7L1250.1,1780.7z M1257.8,1491.4c-39.4,0-70.1-30.3-68.5-67.2
		c1.5-36.3,33.8-65.3,72-65.3s69,29,68.6,65.3C1329.4,1461.1,1297.2,1491.4,1257.8,1491.4L1257.8,1491.4z M1264.6,1233.6
		c-37.2,0-66.3-27.1-64.9-60.1c1.4-32.5,31.8-58.5,68.1-58.5s65.4,26,65,58.5C1332.3,1206.5,1301.8,1233.6,1264.6,1233.6
		L1264.6,1233.6z M1270.7,1002.6c-35.3,0-62.9-24.4-61.7-54.1c1.2-29.3,30.1-52.7,64.5-52.7s62.1,23.4,61.7,52.7
		C1334.9,978.2,1306,1002.6,1270.7,1002.6L1270.7,1002.6z M1519.3,1939.1c-43.1,0-78.5-36.3-79-80.4c-0.5-43.4,33-78,74.8-78
		s77.1,34.6,78.9,78C1595.9,1902.8,1562.4,1939.1,1519.3,1939.1L1519.3,1939.1z M1511.1,1631.8c-40.6,0-73.8-32.1-74.3-71.2
		c-0.4-38.4,31.2-69.2,70.6-69.2s72.6,30.7,74.2,69.2C1583.3,1599.6,1551.7,1631.8,1511.1,1631.8L1511.1,1631.8z M1503.9,1358.9
		c-38.3,0-69.7-28.6-70.1-63.5c-0.4-34.3,29.5-61.8,66.7-61.8s68.6,27.4,70,61.8C1572.1,1330.2,1542.2,1358.9,1503.9,1358.9
		L1503.9,1358.9z M1497.5,1115c-36.3,0-65.9-25.7-66.3-57c-0.3-30.8,28-55.5,63.3-55.5s65,24.7,66.3,55.5
		C1562.1,1089.3,1533.7,1115,1497.5,1115L1497.5,1115z M1651.7,1858.7c-10.6,0-19.7-8.8-20.2-19.7c-0.5-10.8,7.6-19.6,18.1-19.6
		s19.6,8.7,20.2,19.6C1670.4,1849.9,1662.3,1858.7,1651.7,1858.7L1651.7,1858.7z M1635.9,1560.5c-10,0-18.5-7.8-19-17.5
		c-0.5-9.6,7.2-17.4,17.1-17.4s18.4,7.8,18.9,17.4C1653.6,1552.7,1645.9,1560.5,1635.9,1560.5L1635.9,1560.5z M1621.9,1295.4
		c-9.4,0-17.4-7-17.9-15.6c-0.4-8.6,6.8-15.5,16.2-15.5s17.4,6.9,17.9,15.5C1638.6,1288.4,1631.3,1295.4,1621.9,1295.4z
		 M1609.3,1058.1c-8.9,0-16.5-6.3-16.9-14c-0.4-7.7,6.5-13.9,15.4-13.9s16.4,6.2,16.9,13.9
		C1625.2,1051.8,1618.3,1058.1,1609.3,1058.1z"/>
</g>
</svg>
